<svg width="41" height="35" viewBox="0 0 41 35" fill="none" xmlns="http://www.w3.org/2000/svg">
<g id="icomoon-free:users" clip-path="url(#clip0_1062_104051)">
<path id="Vector" d="M26.95 26.3397V24.535C29.3606 23.1766 31.325 19.7925 31.325 16.4062C31.325 10.9703 31.325 6.5625 24.7625 6.5625C18.2 6.5625 18.2 10.9703 18.2 16.4062C18.2 19.7925 20.1643 23.1766 22.575 24.535V26.3397C15.155 26.9456 9.44995 30.5922 9.44995 35H40.075C40.075 30.5922 34.37 26.9456 26.95 26.3397Z" fill="white"/>
<path id="Vector_2" d="M11.8825 27.1838C13.7725 25.9479 16.124 25.0095 18.7118 24.4363C18.1849 23.8113 17.7211 23.1358 17.3271 22.4195C16.301 20.581 15.7548 18.5136 15.739 16.4082C15.739 13.4682 15.739 10.6901 16.7846 8.41727C17.7996 6.21227 19.6262 4.84508 22.2271 4.3332C21.6496 1.71914 20.1096 0.00195312 16.0125 0.00195312C9.44995 0.00195312 9.44995 4.40977 9.44995 9.8457C9.44995 13.232 11.4143 16.616 13.825 17.9745V19.7791C6.40495 20.3851 0.699951 24.0316 0.699951 28.4395H10.2353C10.7318 27.9976 11.2809 27.5798 11.8825 27.186V27.1838Z" fill="white"/>
</g>
<defs>
<clipPath id="clip0_1062_104051">
<rect width="39.375" height="35" fill="white" transform="translate(0.699951)"/>
</clipPath>
</defs>
</svg>
