<svg width="36" height="35" viewBox="0 0 36 35" fill="none" xmlns="http://www.w3.org/2000/svg">
<g id="basil:user-block-solid">
<path id="Vector" d="M9.16077 10.1443C9.16077 9.33738 9.31259 8.5384 9.60757 7.79295C9.90254 7.04749 10.3349 6.37016 10.8799 5.79961C11.425 5.22906 12.072 4.77648 12.7842 4.4677C13.4963 4.15893 14.2595 4 15.0303 4C15.8011 4 16.5644 4.15893 17.2765 4.4677C17.9887 4.77648 18.6357 5.22906 19.1807 5.79961C19.7258 6.37016 20.1581 7.04749 20.4531 7.79295C20.7481 8.5384 20.8999 9.33738 20.8999 10.1443C20.8999 11.7738 20.2815 13.3366 19.1807 14.4889C18.08 15.6412 16.587 16.2885 15.0303 16.2885C13.4736 16.2885 11.9807 15.6412 10.8799 14.4889C9.77917 13.3366 9.16077 11.7738 9.16077 10.1443ZM2.8999 25.7097C2.8999 24.0801 3.5183 22.5173 4.61906 21.365C5.71982 20.2128 7.21276 19.5654 8.76947 19.5654H9.30164C9.59121 19.5654 9.87921 19.6146 10.1531 19.7063L11.5086 20.17C13.0048 20.6816 14.5863 20.8619 16.1526 20.6993C16.211 20.6941 16.2696 20.7047 16.323 20.7299C16.3764 20.7551 16.4228 20.7942 16.4577 20.8434C16.4926 20.8926 16.515 20.9504 16.5227 21.0111C16.5304 21.0719 16.5231 21.1338 16.5016 21.1908C16.0456 22.3658 15.8117 23.6222 15.8129 24.8905C15.8129 26.9418 16.414 28.8474 17.4408 30.4236C17.5832 30.6431 17.4455 30.9528 17.1903 30.961C13.0841 31.1092 8.97397 30.8348 4.91903 30.1417C4.35544 30.0457 3.84285 29.7429 3.47294 29.2875C3.10303 28.8322 2.89991 28.2539 2.8999 27.6562V25.7097Z" fill="white"/>
<path id="Vector_2" fill-rule="evenodd" clip-rule="evenodd" d="M17.8999 24.5C17.8999 26.12 18.379 27.62 19.1941 28.845C19.8394 29.8225 20.6946 30.6194 21.6877 31.1685C22.6807 31.7176 23.7824 32.0028 24.8999 32C26.2844 32 27.6377 31.5601 28.7889 30.736C29.94 29.9119 30.8372 28.7406 31.3671 27.3701C31.8969 25.9997 32.0355 24.4917 31.7654 23.0368C31.4953 21.582 30.8286 20.2456 29.8496 19.1967C28.8707 18.1478 27.6234 17.4335 26.2655 17.1441C24.9077 16.8547 23.5002 17.0032 22.2211 17.5709C20.942 18.1386 19.8488 19.0999 19.0796 20.3332C18.3104 21.5666 17.8999 23.0166 17.8999 24.5ZM24.8999 29.5C24.066 29.5017 23.2472 29.2628 22.5292 28.8083L28.921 21.96C29.3391 22.7195 29.5622 23.5839 29.5679 24.4656C29.5736 25.3474 29.3615 26.215 28.9532 26.9806C28.5449 27.7462 27.9549 28.3824 27.2431 28.8249C26.5312 29.2674 25.7229 29.5003 24.8999 29.5ZM20.8788 27.04L27.2706 20.1917C26.3792 19.6273 25.3379 19.3965 24.3107 19.5358C23.2835 19.675 22.3287 20.1763 21.5965 20.9607C20.8644 21.7451 20.3965 22.7681 20.2666 23.8687C20.1367 24.9693 20.352 26.0849 20.8788 27.04Z" fill="white"/>
</g>
</svg>
