<svg width="58" height="58" viewBox="0 0 58 58" fill="none" xmlns="http://www.w3.org/2000/svg">
<rect width="58" height="58" rx="15" fill="#F24949"/>
<path fill-rule="evenodd" clip-rule="evenodd" d="M42.815 22.5197V34.4066C42.815 38.8107 39.98 41.917 35.45 41.917H22.475C17.945 41.917 15.125 38.8107 15.125 34.4066V22.5197C15.125 18.1155 17.96 15.0107 22.475 15.0107H35.45C39.98 15.0107 42.815 18.1155 42.815 22.5197Z" stroke="white" stroke-width="1.5" stroke-linecap="round" stroke-linejoin="round"/>
<path d="M18.9219 34.9614L21.2139 32.6091C22.0104 31.7881 23.3379 31.7487 24.1839 32.5216C24.2094 32.5464 25.5894 33.91 25.5894 33.91C26.4219 34.7339 27.7824 34.7471 28.6299 33.9391C28.6854 33.8866 32.1309 29.8237 32.1309 29.8237C33.0189 28.7752 34.6134 28.625 35.6934 29.4898C35.7654 29.5481 39.0204 32.7958 39.0204 32.7958" stroke="white" stroke-width="1.5" stroke-linecap="round" stroke-linejoin="round"/>
<path fill-rule="evenodd" clip-rule="evenodd" d="M26.469 24.3185C26.469 25.7317 25.2915 26.8765 23.838 26.8765C22.3845 26.8765 21.207 25.7317 21.207 24.3185C21.207 22.9054 22.3845 21.7606 23.838 21.7606C25.2915 21.7621 26.469 22.9054 26.469 24.3185Z" stroke="white" stroke-width="1.5" stroke-linecap="round" stroke-linejoin="round"/>
</svg>
