<svg width="36" height="35" viewBox="0 0 36 35" fill="none" xmlns="http://www.w3.org/2000/svg">
<g id="bxs:chat">
<path id="Vector" d="M5.93351 26.25H8.85018V32.2015L16.2891 26.25H23.4335C25.0421 26.25 26.3502 24.9419 26.3502 23.3333V11.6667C26.3502 10.0581 25.0421 8.75 23.4335 8.75H5.93351C4.32497 8.75 3.01685 10.0581 3.01685 11.6667V23.3333C3.01685 24.9419 4.32497 26.25 5.93351 26.25Z" fill="white"/>
<path id="Vector_2" d="M29.2668 2.91699H11.7668C10.1582 2.91699 8.8501 4.22512 8.8501 5.83366H26.3501C27.9586 5.83366 29.2668 7.14178 29.2668 8.75033V20.417C30.8753 20.417 32.1834 19.1089 32.1834 17.5003V5.83366C32.1834 4.22512 30.8753 2.91699 29.2668 2.91699Z" fill="white"/>
</g>
</svg>
