<svg width="12" height="12" viewBox="0 0 12 12" fill="none" xmlns="http://www.w3.org/2000/svg">
<g id="Group">
<path id="Vector" fill-rule="evenodd" clip-rule="evenodd" d="M9.28945 1.36328V2.11816H10.553H10.554V2.12012C10.9531 2.12109 11.3148 2.27344 11.5761 2.52051C11.8352 2.76562 11.9969 3.10449 11.9979 3.47949H12V3.48145V10.6367V10.6377H11.9979C11.9969 11.0127 11.8352 11.3535 11.5729 11.6006C11.3128 11.8447 10.9531 11.9971 10.5551 11.998V12H10.553H4.15755H4.15652V11.998C3.75849 11.9971 3.3957 11.8447 3.13449 11.5977C2.87536 11.3525 2.71366 11.0137 2.71262 10.6387H2.71055V10.6367V9.03418H1.44701H1.44597V9.03223C1.04794 9.03125 0.685152 8.87891 0.423944 8.63184C0.16481 8.38672 0.00310961 8.04785 0.00207308 7.67285H0V7.6709V1.36328V1.3623H0.00207308C0.00310961 0.986328 0.165846 0.645508 0.427054 0.399414C0.687225 0.155273 1.0469 0.00292969 1.44493 0.00195312V0H1.44701H7.84245H7.84348V0.00195312C8.24255 0.00292969 8.6043 0.155273 8.86551 0.402344C9.12464 0.647461 9.28634 0.986328 9.28738 1.36133H9.28945V1.36328ZM8.1928 2.11816V1.36328V1.36133H8.19487C8.19487 1.27246 8.15444 1.19043 8.09018 1.12988C8.02695 1.07031 7.93884 1.03223 7.84452 1.03223V1.03418H7.84348H1.44804H1.44597V1.03223C1.35165 1.03223 1.26458 1.07031 1.20031 1.13086C1.13708 1.19043 1.09666 1.27344 1.09666 1.3623H1.09873V1.36328V7.6709V7.67285H1.09666C1.09666 7.76172 1.13708 7.84375 1.20135 7.9043C1.26458 7.96387 1.35268 8.00195 1.44701 8.00195V8H1.44804H2.71158V3.48145V3.48047H2.71366C2.71469 3.10449 2.87743 2.76367 3.13864 2.51758C3.39881 2.27344 3.75849 2.12109 4.15652 2.12012V2.11816H4.15859H8.1928ZM10.9023 10.6367V3.48145V3.47949H10.9044C10.9044 3.39062 10.864 3.30859 10.7997 3.24805C10.7365 3.18848 10.6484 3.15039 10.554 3.15039V3.15234H10.553H4.15755H4.15548V3.15039C4.06116 3.15039 3.97409 3.18848 3.90982 3.24902C3.84659 3.30859 3.80617 3.3916 3.80617 3.48047H3.80824V3.48145V10.6367V10.6387H3.80617C3.80617 10.7275 3.84659 10.8096 3.91086 10.8701C3.97409 10.9297 4.06219 10.9678 4.15652 10.9678V10.9658H4.15755H10.553H10.5551V10.9678C10.6494 10.9678 10.7365 10.9297 10.8007 10.8691C10.864 10.8096 10.9044 10.7266 10.9044 10.6377H10.9023V10.6367Z" fill="#7E7E7E"/>
</g>
</svg>
