<svg width="14" height="12" viewBox="0 0 14 12" fill="none" xmlns="http://www.w3.org/2000/svg">
<g clip-path="url(#clip0_1742_66959)">
<path fill-rule="evenodd" clip-rule="evenodd" d="M2.40743 9.3388H11.5505L12.9792 5.47132C13.0533 5.49471 13.133 5.50696 13.215 5.50696C13.648 5.50696 14 5.16397 14 4.7397C14 4.31653 13.6491 3.97243 13.215 3.97243C12.7821 3.97243 12.4301 4.31542 12.4301 4.7397C12.4301 4.90673 12.4847 5.06041 12.577 5.18624L11.7658 5.8388C10.6299 6.75194 9.91785 6.32878 10.14 4.91007L10.2653 4.11163C10.3086 4.11943 10.3542 4.12277 10.3998 4.12277C10.8327 4.12277 11.1848 3.77978 11.1848 3.35551C11.1848 2.93235 10.8339 2.58825 10.3998 2.58825C9.96684 2.58825 9.61479 2.93123 9.61479 3.35551C9.61479 3.59716 9.72986 3.81319 9.90873 3.9535L9.71391 4.25417C8.75916 5.65506 8.05505 5.11831 7.77364 3.73413L7.2712 1.47243C7.55261 1.35551 7.75085 1.08379 7.75085 0.765307C7.75085 0.342145 7.39994 -0.00195312 6.96586 -0.00195312C6.53292 -0.00195312 6.18087 0.341031 6.18087 0.765307C6.18087 1.11943 6.42582 1.41676 6.7585 1.50584L6.43266 2.79537C6.15011 3.97689 5.81173 6.33101 4.28162 4.32433L4.0321 3.99248C4.22921 3.85328 4.35795 3.62611 4.35795 3.36998C4.35795 2.94682 4.00704 2.60272 3.57296 2.60272C3.14001 2.60272 2.78796 2.94571 2.78796 3.36998C2.78796 3.79315 3.13888 4.13725 3.57296 4.13725C3.63334 4.13725 3.69259 4.13056 3.74955 4.1172L3.80196 4.63836C3.9045 5.34994 4.03552 6.31319 3.19926 6.26753C2.78455 6.24526 2.62846 6.10718 2.31173 5.88669L1.4071 5.25974C1.5085 5.13056 1.56889 4.96909 1.56889 4.79315C1.56889 4.36998 1.21798 4.02589 0.783895 4.02589C0.350952 4.02589 -0.00109863 4.36887 -0.00109863 4.79315C-0.00109863 5.21742 0.349813 5.56041 0.783895 5.56041C0.886434 5.56041 0.983276 5.54148 1.07328 5.50696L2.40743 9.3388ZM2.40059 10.409H11.5733V12.0003H2.40059V10.409Z" fill="white"/>
</g>
<defs>
<clipPath id="clip0_1742_66959">
<rect width="14" height="12" fill="white"/>
</clipPath>
</defs>
</svg>
