<svg width="52" height="12" viewBox="0 0 52 12" fill="none" xmlns="http://www.w3.org/2000/svg">
<rect opacity="0.9" y="5" width="52" height="6" fill="#693DAF"/>
<path d="M13.52 10V6.385H14.505C14.8617 6.385 15.165 6.44 15.415 6.55C15.6683 6.66 15.8717 6.805 16.025 6.985C16.1783 7.165 16.29 7.365 16.36 7.585C16.4333 7.80167 16.47 8.01833 16.47 8.235C16.47 8.50833 16.4217 8.75333 16.325 8.97C16.2317 9.18667 16.1017 9.37167 15.935 9.525C15.7683 9.67833 15.5767 9.79667 15.36 9.88C15.1467 9.96 14.92 10 14.68 10H13.52ZM14.005 9.535H14.585C14.785 9.535 14.9683 9.505 15.135 9.445C15.305 9.385 15.4517 9.29833 15.575 9.185C15.7017 9.07167 15.8 8.93333 15.87 8.77C15.94 8.60333 15.975 8.415 15.975 8.205C15.975 7.98167 15.9383 7.78667 15.865 7.62C15.7917 7.45 15.6917 7.30833 15.565 7.195C15.4383 7.08167 15.295 6.99667 15.135 6.94C14.975 6.88 14.8067 6.85 14.63 6.85H14.005V9.535ZM17.2846 6.385H17.7696V10H17.2846V6.385ZM18.4481 10L20.0281 6.235H20.0581L21.6331 10H21.0781L19.8981 6.995L20.2431 6.77L18.9231 10H18.4481ZM19.3731 8.63H20.7181L20.8781 9.05H19.2331L19.3731 8.63ZM22.3139 10V6.27H22.3189L24.2139 8.96L24.0089 8.92L25.8989 6.27H25.9089V10H25.4289V7.37L25.4589 7.615L24.0939 9.545H24.0839L22.6989 7.615L22.7839 7.39V10H22.3139ZM26.7227 8.195C26.7227 7.945 26.7694 7.71 26.8627 7.49C26.9594 7.26667 27.0927 7.07 27.2627 6.9C27.4327 6.72667 27.6277 6.59167 27.8477 6.495C28.0711 6.395 28.3111 6.345 28.5677 6.345C28.8211 6.345 29.0577 6.395 29.2777 6.495C29.5011 6.59167 29.6977 6.72667 29.8677 6.9C30.0411 7.07 30.1761 7.26667 30.2727 7.49C30.3694 7.71 30.4177 7.945 30.4177 8.195C30.4177 8.45167 30.3694 8.69167 30.2727 8.915C30.1761 9.13833 30.0411 9.335 29.8677 9.505C29.6977 9.67167 29.5011 9.80333 29.2777 9.9C29.0577 9.99333 28.8211 10.04 28.5677 10.04C28.3111 10.04 28.0711 9.99333 27.8477 9.9C27.6277 9.80667 27.4327 9.67667 27.2627 9.51C27.0927 9.34333 26.9594 9.14833 26.8627 8.925C26.7694 8.70167 26.7227 8.45833 26.7227 8.195ZM27.2227 8.2C27.2227 8.39 27.2577 8.56833 27.3277 8.735C27.3977 8.89833 27.4944 9.04333 27.6177 9.17C27.7411 9.29667 27.8844 9.39667 28.0477 9.47C28.2111 9.54 28.3877 9.575 28.5777 9.575C28.7644 9.575 28.9394 9.54 29.1027 9.47C29.2661 9.39667 29.4077 9.29667 29.5277 9.17C29.6477 9.04333 29.7427 8.89833 29.8127 8.735C29.8827 8.56833 29.9177 8.38833 29.9177 8.195C29.9177 8.005 29.8827 7.82667 29.8127 7.66C29.7427 7.49 29.6461 7.34167 29.5227 7.215C29.3994 7.08833 29.2561 6.99 29.0927 6.92C28.9294 6.84667 28.7544 6.81 28.5677 6.81C28.3777 6.81 28.2011 6.84667 28.0377 6.92C27.8744 6.99333 27.7311 7.09333 27.6077 7.22C27.4844 7.34667 27.3894 7.495 27.3227 7.665C27.2561 7.83167 27.2227 8.01 27.2227 8.2ZM34.3648 10.115L31.5698 7.28L31.7098 7.315L31.7198 10H31.2348V6.275H31.2598L34.0248 9.12L33.9098 9.095L33.8998 6.385H34.3798V10.115H34.3648ZM35.4194 10V6.385H36.4044C36.7611 6.385 37.0644 6.44 37.3144 6.55C37.5677 6.66 37.7711 6.805 37.9244 6.985C38.0777 7.165 38.1894 7.365 38.2594 7.585C38.3327 7.80167 38.3694 8.01833 38.3694 8.235C38.3694 8.50833 38.3211 8.75333 38.2244 8.97C38.1311 9.18667 38.0011 9.37167 37.8344 9.525C37.6677 9.67833 37.4761 9.79667 37.2594 9.88C37.0461 9.96 36.8194 10 36.5794 10H35.4194ZM35.9044 9.535H36.4844C36.6844 9.535 36.8677 9.505 37.0344 9.445C37.2044 9.385 37.3511 9.29833 37.4744 9.185C37.6011 9.07167 37.6994 8.93333 37.7694 8.77C37.8394 8.60333 37.8744 8.415 37.8744 8.205C37.8744 7.98167 37.8377 7.78667 37.7644 7.62C37.6911 7.45 37.5911 7.30833 37.4644 7.195C37.3377 7.08167 37.1944 6.99667 37.0344 6.94C36.8744 6.88 36.7061 6.85 36.5294 6.85H35.9044V9.535Z" fill="white"/>
</svg>
