<svg width="116" height="158" viewBox="0 0 116 158" fill="none" xmlns="http://www.w3.org/2000/svg">
<rect x="-157.871" y="133.785" width="306.947" height="28.6949" transform="rotate(-33 -157.871 133.785)" fill="#693DAF"/>
<path d="M8.6511 49.367L3.03914 40.7254L5.62224 39.0479C6.49111 38.4836 7.31469 38.1324 8.09299 37.9942C8.87129 37.856 9.58418 37.8827 10.2317 38.0743C10.887 38.2609 11.4736 38.5643 11.9914 38.9848C12.5093 39.4052 12.9436 39.8855 13.2944 40.4256C13.7112 41.0675 13.9699 41.723 14.0706 42.3921C14.174 43.0483 14.1456 43.69 13.9853 44.3171C13.8199 44.9364 13.5385 45.5142 13.1412 46.0505C12.7387 46.5789 12.244 47.0338 11.6569 47.415L8.6511 49.367ZM9.28611 46.6176L10.2959 45.9619C10.7264 45.6823 11.0822 45.3733 11.3633 45.035C11.6393 44.6888 11.8313 44.3248 11.9395 43.943C12.0555 43.5561 12.0732 43.155 11.9928 42.7398C11.9151 42.3118 11.7365 41.8825 11.4569 41.4519C11.0909 40.8884 10.6996 40.4914 10.283 40.2612C9.86912 40.018 9.46166 39.8876 9.06061 39.8698C8.66739 39.8469 8.30701 39.8918 7.97947 40.0043C7.64684 40.1091 7.38268 40.225 7.18699 40.3521L5.80151 41.2518L9.28611 46.6176ZM12.0974 34.8428L13.7999 33.7372L19.4119 42.3789L17.7094 43.4845L12.0974 34.8428ZM20.6678 41.5633L18.7328 30.0497L18.8268 29.9887L28.558 36.4393L26.5854 37.7203L19.994 33.02L20.6779 31.374L22.3468 40.4729L20.6678 41.5633ZM21.3048 36.7092L23.8997 35.0241L25.4287 36.0677L21.7067 38.4848L21.3048 36.7092ZM29.8177 35.6213L23.977 26.6274L23.9887 26.6197L33.2134 30.3111L32.3787 30.6195L32.8535 20.8629L32.877 20.8477L38.7177 29.8416L37.0152 30.9472L33.6678 25.7927L34.3454 26.6047L34.121 32.6597L34.0975 32.675L28.3925 30.4705L28.1599 29.4698L31.4615 34.5538L29.8177 35.6213ZM37.6247 24.425C37.2383 23.8301 36.9858 23.1928 36.8672 22.5131C36.7485 21.8334 36.7566 21.1604 36.8915 20.4942C37.0291 19.815 37.2878 19.1851 37.6676 18.6046C38.0474 18.0241 38.5425 17.5356 39.1531 17.1391C39.7558 16.7477 40.3996 16.4966 41.0843 16.3858C41.7691 16.2749 42.4497 16.2948 43.1262 16.4453C43.8054 16.5829 44.4313 16.8442 45.004 17.229C45.5844 17.6088 46.0679 18.0961 46.4542 18.691C46.8507 19.3016 47.1044 19.9493 47.2152 20.634C47.3339 21.3137 47.3179 21.9918 47.1674 22.6682C47.0196 23.3318 46.7533 23.9499 46.3684 24.5226C45.9836 25.0952 45.4898 25.5773 44.887 25.9687C44.2765 26.3652 43.6314 26.6227 42.9517 26.7414C42.272 26.8601 41.599 26.852 40.9327 26.7171C40.2692 26.5693 39.6511 26.303 39.0784 25.9181C38.5057 25.5333 38.0212 25.0356 37.6247 24.425ZM39.3859 23.2813C39.635 23.6648 39.9353 23.9817 40.287 24.2318C40.6414 24.4691 41.0238 24.6381 41.4342 24.7388C41.8473 24.8266 42.2601 24.8368 42.6725 24.7693C43.0928 24.6967 43.4947 24.5358 43.8783 24.2868C44.2462 24.0478 44.5409 23.7563 44.7625 23.412C44.9919 23.0627 45.1427 22.6866 45.2149 22.2836C45.282 21.8728 45.2753 21.4598 45.1949 21.0446C45.1094 20.6216 44.9421 20.2183 44.693 19.8348C44.4388 19.4434 44.132 19.1252 43.7725 18.8801C43.4209 18.6299 43.0424 18.4584 42.6371 18.3655C42.2345 18.2597 41.827 18.2405 41.4145 18.308C41.0021 18.3756 40.608 18.5313 40.2323 18.7753C39.8566 19.0193 39.554 19.316 39.3246 19.6653C39.0951 20.0146 38.943 20.3972 38.8681 20.8131C38.7881 21.2212 38.7908 21.6367 38.8764 22.0597C38.9619 22.4827 39.1317 22.8899 39.3859 23.2813ZM58.9162 17.2253L48.5216 15.5623L49.2094 15.5162L52.6759 20.777L50.9499 21.8979L45.1168 12.9157L45.1873 12.8699L55.4258 14.6009L54.9433 14.6805L51.4082 9.31409L53.1225 8.20085L58.9632 17.1948L58.9162 17.2253ZM60.9599 15.3973L55.3479 6.75562L57.931 5.07814C58.7999 4.51389 59.6235 4.16267 60.4018 4.02449C61.1801 3.8863 61.893 3.91301 62.5405 4.10461C63.1958 4.29113 63.7824 4.59461 64.3002 5.01506C64.8181 5.4355 65.2524 5.91577 65.6032 6.45588C66.02 7.09774 66.2787 7.75323 66.3794 8.42235C66.4828 9.07856 66.4544 9.72024 66.2941 10.3474C66.1287 10.9667 65.8473 11.5445 65.45 12.0808C65.0475 12.6092 64.5528 13.0641 63.9657 13.4453L60.9599 15.3973ZM61.5949 12.6479L62.6047 11.9921C63.0352 11.7125 63.391 11.4036 63.6721 11.0653C63.948 10.7191 64.1401 10.3551 64.2483 9.97326C64.3643 9.58633 64.382 9.18529 64.3016 8.77011C64.2239 8.34202 64.0453 7.91272 63.7657 7.48221C63.3997 6.91862 63.0084 6.5217 62.5918 6.29146C62.1779 6.04831 61.7705 5.91784 61.3694 5.90007C60.9762 5.87721 60.6158 5.92206 60.2883 6.03461C59.9556 6.13933 59.6915 6.25524 59.4958 6.38232L58.1103 7.28206L61.5949 12.6479Z" fill="white"/>
</svg>
