<svg width="16" height="17" viewBox="0 0 16 17" fill="none" xmlns="http://www.w3.org/2000/svg">
<g clip-path="url(#clip0_1025_99938)">
<path d="M11.9593 12.2934C10.8197 13.162 9.43209 13.6433 7.99935 13.6667C3.33268 13.6667 0.666016 8.33335 0.666016 8.33335C1.49528 6.78795 2.64544 5.43776 4.03935 4.37335M6.59935 3.16002C7.05824 3.0526 7.52806 2.99891 7.99935 3.00002C12.666 3.00002 15.3327 8.33335 15.3327 8.33335C14.928 9.09042 14.4454 9.80317 13.8927 10.46M9.41268 9.74668C9.22958 9.94318 9.00878 10.1008 8.76345 10.2101C8.51812 10.3194 8.25328 10.3782 7.98474 10.3829C7.7162 10.3877 7.44946 10.3383 7.20042 10.2377C6.95139 10.1371 6.72516 9.98737 6.53525 9.79745C6.34533 9.60754 6.19561 9.38131 6.09502 9.13228C5.99443 8.88324 5.94503 8.6165 5.94977 8.34796C5.95451 8.07942 6.01329 7.81458 6.1226 7.56925C6.23191 7.32392 6.38952 7.10312 6.58602 6.92002" stroke="#7E7E7E" stroke-linecap="round" stroke-linejoin="round"/>
<path d="M0.666016 1L15.3327 15.6667" stroke="#7E7E7E" stroke-linecap="round" stroke-linejoin="round"/>
</g>
<defs>
<clipPath id="clip0_1025_99938">
<rect width="16" height="16" fill="white" transform="translate(0 0.333984)"/>
</clipPath>
</defs>
</svg>
