<svg width="36" height="35" viewBox="0 0 36 35" fill="none" xmlns="http://www.w3.org/2000/svg">
<g id="solar:verified-check-bold">
<path id="Vector" fill-rule="evenodd" clip-rule="evenodd" d="M14.0884 4.66638C13.859 4.87392 13.618 5.06819 13.3665 5.24826C12.9319 5.53993 12.4434 5.74118 11.9301 5.84326C11.7069 5.88701 11.4736 5.90597 11.0084 5.94243C9.84027 6.03576 9.25547 6.08243 8.76839 6.25451C8.21145 6.45115 7.7056 6.76998 7.28796 7.18762C6.87032 7.60526 6.55149 8.11111 6.35485 8.66805C6.18277 9.15513 6.1361 9.73993 6.04277 10.9081C6.02686 11.2169 5.99375 11.5246 5.9436 11.8297C5.84152 12.3431 5.64027 12.8316 5.3486 13.2662C5.22172 13.4558 5.07006 13.6337 4.76673 13.9881C4.00693 14.8806 3.62631 15.3268 3.40318 15.7935C2.88839 16.8726 2.88839 18.1268 3.40318 19.206C3.62631 19.6726 4.00693 20.1189 4.76673 21.0114C5.07006 21.3658 5.22172 21.5437 5.3486 21.7333C5.64027 22.1678 5.84152 22.6564 5.9436 23.1697C5.98735 23.3928 6.00631 23.6262 6.04277 24.0914C6.1361 25.2595 6.18277 25.8443 6.35485 26.3314C6.55149 26.8883 6.87032 27.3942 7.28796 27.8118C7.7056 28.2295 8.21145 28.5483 8.76839 28.7449C9.25547 28.917 9.84027 28.9637 11.0084 29.057C11.4736 29.0935 11.7069 29.1124 11.9301 29.1562C12.4434 29.2583 12.9319 29.461 13.3665 29.7512C13.5561 29.878 13.734 30.0297 14.0884 30.333C14.9809 31.0928 15.4271 31.4735 15.8938 31.6966C16.973 32.2114 18.2271 32.2114 19.3063 31.6966C19.773 31.4735 20.2192 31.0928 21.1117 30.333C21.4661 30.0297 21.644 29.878 21.8336 29.7512C22.2682 29.4595 22.7567 29.2583 23.2701 29.1562C23.4932 29.1124 23.7265 29.0935 24.1917 29.057C25.3598 28.9637 25.9446 28.917 26.4317 28.7449C26.9887 28.5483 27.4945 28.2295 27.9122 27.8118C28.3298 27.3942 28.6486 26.8883 28.8453 26.3314C29.0173 25.8443 29.064 25.2595 29.1573 24.0914C29.1938 23.6262 29.2128 23.3928 29.2565 23.1697C29.3586 22.6564 29.5613 22.1678 29.8515 21.7333C29.9784 21.5437 30.1301 21.3658 30.4334 21.0114C31.1932 20.1189 31.5738 19.6726 31.7969 19.206C32.3117 18.1268 32.3117 16.8726 31.7969 15.7935C31.5738 15.3268 31.1932 14.8806 30.4334 13.9881C30.2259 13.7587 30.0316 13.5177 29.8515 13.2662C29.5601 12.8314 29.3579 12.3432 29.2565 11.8297C29.2064 11.5246 29.1733 11.2169 29.1573 10.9081C29.064 9.73993 29.0173 9.15513 28.8453 8.66805C28.6486 8.11111 28.3298 7.60526 27.9122 7.18762C27.4945 6.76998 26.9887 6.45115 26.4317 6.25451C25.9446 6.08243 25.3598 6.03576 24.1917 5.94243C23.8829 5.92652 23.5752 5.89341 23.2701 5.84326C22.7566 5.74189 22.2684 5.53965 21.8336 5.24826C21.5824 5.06781 21.3414 4.87355 21.1117 4.66638C20.2192 3.90659 19.773 3.52597 19.3063 3.30284C18.7736 3.04819 18.1905 2.91602 17.6001 2.91602C17.0096 2.91602 16.4266 3.04819 15.8938 3.30284C15.4271 3.52597 14.9809 3.90659 14.0884 4.66638ZM23.9773 14.3833C24.1835 14.1577 24.2946 13.8613 24.2878 13.5558C24.2809 13.2503 24.1564 12.9592 23.9404 12.7432C23.7243 12.5271 23.4332 12.4027 23.1277 12.3958C22.8222 12.3889 22.5259 12.5001 22.3003 12.7062L15.2274 19.7791L12.8998 17.4531C12.6743 17.2469 12.3779 17.1358 12.0724 17.1426C11.7669 17.1495 11.4758 17.274 11.2597 17.49C11.0437 17.7061 10.9192 17.9972 10.9124 18.3027C10.9055 18.6082 11.0167 18.9045 11.2228 19.1301L14.3873 22.2947C14.6099 22.5168 14.9115 22.6416 15.2259 22.6416C15.5403 22.6416 15.8419 22.5168 16.0644 22.2947L23.9788 14.3833H23.9773Z" fill="white"/>
</g>
</svg>
