<svg width="66" height="109" viewBox="0 0 66 109" fill="none" xmlns="http://www.w3.org/2000/svg">
<path d="M31.2363 76.3721H54.0915C54.0915 76.3721 57.4453 92.2752 56.1793 107.778H38.8103C38.8103 107.778 32.0803 87.8996 31.2363 76.3721Z" fill="#BA3131"/>
<path d="M25.3955 56.3374C25.3955 56.3374 13.5792 66.6655 12.5353 88.8543C11.7801 105.157 12.713 107.978 12.713 107.978H34.2577C34.2577 107.978 37.0785 97.5166 37.8781 87.6549C37.8781 87.6549 48.5394 82.613 54.181 76.3717C54.181 76.3717 51.5601 63.8891 41.8983 55.249C41.8983 55.249 34.2577 59.4469 25.3955 56.3374Z" fill="#D84848"/>
<path d="M21.6855 81.6131C23.0848 81.9685 24.4619 82.3905 25.839 82.8125C27.2161 83.2567 28.5932 83.7009 29.948 84.1896C31.3029 84.6782 32.6578 85.1891 34.0127 85.7222C35.3453 86.2552 36.678 86.8105 38.0107 87.388H37.7663C38.9879 86.8771 40.1873 86.2774 41.3867 85.6777C42.5861 85.078 43.7411 84.4117 44.8961 83.7454C46.051 83.0568 47.1616 82.3239 48.2721 81.5687C49.3827 80.8135 50.4044 79.9473 51.4261 79.0811C50.9597 79.5475 50.4933 80.0583 49.9824 80.4803C49.7381 80.7025 49.4938 80.9468 49.2272 81.1467L48.4498 81.7908C47.3837 82.6126 46.2954 83.4122 45.1626 84.1452C44.0298 84.8781 42.8527 85.5445 41.6755 86.1886C40.4761 86.8327 39.2767 87.4102 38.0329 87.9655L37.9218 88.0099L37.8108 87.9655C36.5003 87.388 35.1676 86.8105 33.835 86.2774C32.5023 85.7222 31.1697 85.1891 29.8148 84.6782C28.4821 84.1452 27.1272 83.6343 25.7724 83.1457C24.3953 82.5904 23.0404 82.1018 21.6855 81.6131Z" fill="#AD1E1E"/>
<path d="M36.5449 59.5576C37.1002 60.6015 37.5444 61.7121 37.9442 62.8226C38.344 63.9332 38.6772 65.0882 38.9659 66.2431C39.5212 68.5531 39.8766 70.9297 40.0321 73.3062C40.1875 75.6828 40.1431 78.0816 39.921 80.4582C39.6989 82.8348 39.2547 85.1891 38.6772 87.4991L38.2552 87.1659L43.3859 84.5894L43.2304 84.7893C43.4081 83.7676 43.497 82.7015 43.5858 81.6576C43.6525 80.6137 43.6969 79.5475 43.6969 78.4814C43.6969 76.3714 43.5636 74.2391 43.2527 72.1513C43.0972 71.1073 42.9195 70.0634 42.6752 69.0417C42.4308 68.02 42.1421 66.9983 41.8089 65.9766C41.1426 63.9554 40.232 62.023 39.1436 60.2017C40.343 61.9564 41.2981 63.8888 42.0533 65.8878C42.2532 66.3764 42.4086 66.8873 42.5863 67.3981C42.7418 67.909 42.8973 68.4198 43.0305 68.9307C43.2971 69.9746 43.5192 71.0185 43.6969 72.0624C44.0523 74.1725 44.2299 76.3047 44.2522 78.4592C44.2744 80.5915 44.1633 82.7459 43.8301 84.8782L43.8079 85.0115L43.6747 85.0781L38.5439 87.6768L37.9442 87.9655L38.0997 87.3214C38.6994 85.0337 39.0992 82.7237 39.3657 80.3693C39.4324 79.7919 39.4768 79.1922 39.5212 78.6147C39.5434 78.0372 39.5878 77.4375 39.61 76.86C39.6545 75.6828 39.6323 74.5056 39.5878 73.3285C39.4768 70.9741 39.188 68.6197 38.6994 66.3098C38.1885 63.9998 37.5222 61.7121 36.5449 59.5576Z" fill="#AD1E1E"/>
<path d="M31.4804 60.7576C31.2361 61.6682 30.903 62.5567 30.5476 63.4451C30.1922 64.3113 29.7702 65.1776 29.326 66.0216C28.8818 66.8656 28.3709 67.6652 27.8156 68.4426C27.2603 69.22 26.6607 69.9529 25.9943 70.6415C25.328 71.33 24.595 71.9519 23.8176 72.5294C23.0403 73.0847 22.174 73.5511 21.2856 73.9287C20.3971 74.3063 19.4421 74.5284 18.487 74.6839L17.7762 74.7727C17.5319 74.7949 17.2876 74.7949 17.0433 74.7949L16.6879 74.8171L16.3325 74.7949L15.5996 74.7505L15.8883 74.5506L15.0665 77.5713L14.8444 77.2159C15.9105 77.327 17.0433 77.2604 18.1538 77.1049C19.2422 76.9494 20.3305 76.6607 21.3744 76.2831C22.4183 75.9055 23.4178 75.3946 24.3507 74.7949C25.2836 74.1952 26.1498 73.4845 26.9272 72.6849C27.7046 71.8853 28.3931 71.0191 29.0372 70.0862C29.326 69.6198 29.6369 69.1533 29.9035 68.6425C30.0367 68.3982 30.17 68.1538 30.3033 67.9095L30.6586 67.1543L30.8363 66.7768L30.9918 66.377L31.3028 65.5996C31.5027 65.0665 31.6803 64.5334 31.858 64.0004L32.3245 62.379L32.7243 60.7354C32.3689 62.9565 31.7692 65.1553 30.8807 67.2654L30.5254 68.0428C30.4143 68.3093 30.2588 68.5536 30.1478 68.798C29.9035 69.3088 29.5925 69.7975 29.3038 70.2861C28.6819 71.2412 27.9933 72.1518 27.2159 72.9958C25.6389 74.6617 23.6844 75.9721 21.5521 76.7939C20.486 77.1937 19.3532 77.4825 18.2205 77.6602C17.0877 77.8156 15.9327 77.9045 14.7777 77.7712L14.4668 77.749L14.5556 77.438L15.3774 74.4173L15.4441 74.2174L15.6662 74.2397L16.3547 74.2841L16.7101 74.3063H17.0655C17.2876 74.3063 17.5319 74.2841 17.754 74.2841L18.4426 74.1952C19.3532 74.062 20.2639 73.8621 21.1301 73.5067C21.9963 73.1513 22.8181 72.7293 23.5955 72.1962C24.3729 71.6632 25.0837 71.0635 25.75 70.4194C27.0827 69.1089 28.1932 67.5541 29.1483 65.9549C29.6369 65.1331 30.0589 64.3113 30.4587 63.4451C30.8141 62.5344 31.1695 61.646 31.4804 60.7576Z" fill="#AD1E1E"/>
<path d="M17.7536 77.5498C17.7536 77.5498 17.6425 78.1717 17.4648 79.3489" stroke="#AD1E1E" stroke-width="0.301892" stroke-miterlimit="10"/>
<path d="M16.9546 83.1475C16.3771 87.9673 15.7108 95.519 15.733 104.248" stroke="#AD1E1E" stroke-width="0.301892" stroke-miterlimit="10" stroke-dasharray="3.84 3.84"/>
<path d="M15.7559 106.18C15.7559 106.779 15.7781 107.379 15.8003 108.001" stroke="#AD1E1E" stroke-width="0.301892" stroke-miterlimit="10"/>
<path d="M27.195 58.3584C25.2182 57.9142 24.0188 57.4033 24.0188 57.4033L22.1309 60.0464C23.4413 60.5573 24.6851 60.9793 25.9067 61.3125C26.351 60.3352 26.8396 59.3579 27.195 58.3584Z" fill="#2C2429"/>
<path d="M43.41 56.6699C38.0572 59.2242 32.9042 59.2464 29.2616 58.7355C28.884 59.7795 28.3954 60.779 27.9512 61.8007C39.4121 64.2217 45.5201 59.0021 45.5201 59.0021C44.1652 57.2696 43.41 56.6699 43.41 56.6699Z" fill="#2C2429"/>
<path d="M34.9468 58.3577L34.9023 63.1775L41.4324 62.3335L40.4995 57.6025L34.9468 58.3577Z" fill="#F89B6A"/>
<path d="M27.7697 1.72032C27.7697 1.72032 34.3442 -0.700685 37.5648 4.54112C40.7854 9.78292 37.1206 18.3342 42.3846 22.7542C47.6264 27.1742 46.538 36.6361 40.5411 39.9455C34.5663 43.2772 21.9949 19.1116 27.7697 1.72032Z" fill="#181818"/>
<path d="M28.3926 1.87572C29.3699 1.52034 30.436 1.29823 31.4799 1.25381C32.5238 1.18718 33.6122 1.29823 34.6339 1.6314C35.6556 1.94235 36.5884 2.54205 37.3658 3.29722C37.7434 3.67481 38.0766 4.11903 38.3653 4.56325C38.6541 5.02968 38.8984 5.49612 39.0983 6.00697C39.4981 7.00647 39.698 8.07259 39.8313 9.11651C39.9645 10.1826 40.0089 11.2266 40.0534 12.2705C40.1422 14.3583 40.1644 16.4684 40.6753 18.4674C40.7863 18.956 40.964 19.4446 41.1639 19.9111C41.275 20.1332 41.3638 20.3775 41.4971 20.5996L41.6748 20.9328L41.8747 21.2437C41.9413 21.3548 42.0079 21.4436 42.0968 21.5547L42.3411 21.8434L42.6076 22.1322C42.6965 22.221 42.7853 22.3099 42.8742 22.3987L43.4517 22.9318C43.6516 23.1095 43.8515 23.3094 44.0291 23.5093C44.7621 24.3089 45.3396 25.2417 45.7616 26.2412C46.1836 27.2407 46.4279 28.2846 46.539 29.3508C46.65 30.4169 46.6056 31.5052 46.4279 32.5492C46.2502 33.5931 45.9171 34.6148 45.4506 35.5921C44.9842 36.5471 44.3845 37.4356 43.6738 38.213C42.9408 38.9904 42.0968 39.6345 41.1639 40.1231C42.0524 39.5678 42.8742 38.8793 43.5405 38.1019C44.2068 37.3023 44.7621 36.4139 45.1619 35.4588C45.5617 34.5037 45.8504 33.5042 46.0059 32.4825C46.1392 31.4608 46.1836 30.4169 46.0503 29.3952C45.9171 28.3735 45.6728 27.374 45.2508 26.4411C44.8287 25.5083 44.2957 24.642 43.5849 23.8869C43.4072 23.7092 43.2295 23.5093 43.0519 23.3538L42.4744 22.8207C42.3633 22.7319 42.2745 22.643 42.1856 22.532L41.8969 22.2432L41.6526 21.9323C41.5637 21.8212 41.4749 21.7102 41.4082 21.5991L41.1861 21.2659L40.9862 20.9106C40.853 20.6885 40.7419 20.4219 40.6309 20.1776C40.431 19.6668 40.2311 19.1559 40.12 18.645C39.5869 16.5572 39.5869 14.4027 39.5203 12.3149C39.4981 11.271 39.4537 10.2271 39.3426 9.18315C39.276 8.67229 39.2093 8.16144 39.0983 7.65059C39.0539 7.40626 38.9872 7.13973 38.9206 6.89541C38.854 6.65109 38.7873 6.40677 38.6763 6.16245C38.5208 5.6738 38.2765 5.22958 38.0322 4.78536C37.7656 4.34114 37.4547 3.94134 37.1215 3.56376C36.4108 2.83079 35.5445 2.23109 34.5895 1.89793C33.6122 1.54255 32.5683 1.38708 31.5465 1.40929C31.0357 1.40929 30.5026 1.45371 29.9918 1.54255C29.4143 1.60919 28.8812 1.72024 28.3926 1.87572Z" fill="#181818"/>
<path d="M22.1279 19.5107C22.1279 19.5107 25.1486 29.4835 22.883 29.7722C20.6175 30.0832 12.2662 28.5728 14.776 36.4133C17.2859 44.2538 30.4348 46.3861 30.4348 46.3861C30.4348 46.3861 46.0936 42.0771 43.8503 33.9479C41.8957 26.907 36.1875 30.5274 33.2112 29.7722C29.1243 28.7505 29.9684 19.5107 29.9684 19.5107H22.1279Z" fill="#F89B6A"/>
<path d="M31.6789 28.8174C29.369 26.1743 29.9909 19.5332 29.9909 19.5332H22.1504C22.1504 19.5332 23.3276 23.4423 23.6607 26.4186C25.6375 28.5953 28.7471 29.3949 31.6789 28.8174Z" fill="#F77754"/>
<path d="M31.6798 5.34053C31.6798 5.34053 22.9952 2.03108 20.3521 9.80494C17.3314 18.7338 23.6838 28.8176 31.6798 26.7742C38.2098 25.1083 38.1654 7.85037 31.6798 5.34053Z" fill="#F89B6A"/>
<path d="M46.0294 34.6806L54.2919 41.2329L61.466 23.6417C61.466 23.6417 55.7578 18.2445 62.1768 21.9759C62.1768 21.9759 55.0693 11.0481 62.7987 20.4878C62.7987 20.4878 58.0011 8.29392 63.776 18.4444C63.776 18.4444 59.7114 7.98296 64.7755 17.667C64.7755 17.667 65.9749 19.9991 65.4418 24.7079C64.8643 29.9275 61.1107 49.2066 57.668 51.9386C54.2252 54.6705 41.6094 42.8321 41.6094 42.8321L46.0294 34.6806Z" fill="#F89B6A"/>
<path d="M48.2492 41.5217C48.8045 40.2778 49.5375 39.1451 50.115 37.9235L46.0281 34.6807L41.5859 42.8099C41.5859 42.8099 43.385 44.4979 45.806 46.4525C46.7389 44.8755 47.4941 43.2097 48.2492 41.5217Z" fill="#F89B6A"/>
<path d="M19.7093 42.3206L16.7331 46.0742C16.7331 46.0742 9.89207 43.8309 7.9375 37.945C7.9375 37.945 14.4675 31.3039 15.7336 30.5487C16.9996 29.7936 20.7755 29.6381 20.7755 29.6381C20.7755 29.6381 22.9744 36.3902 31.1036 35.7461C39.2328 35.102 36.723 29.0384 36.723 29.0384C36.723 29.0384 41.0097 26.6174 49.2944 36.2792C49.2944 36.2792 45.8295 42.6093 42.3424 43.9864C38.8775 45.3413 29.0824 41.7209 29.0824 41.7209L19.7093 42.3206Z" fill="white"/>
<path d="M44.2297 31.3701C44.163 31.7477 44.0964 32.1031 44.0076 32.4362C43.4523 34.6351 42.3861 36.5897 40.9869 38.3888C39.4543 40.3212 37.5664 42.098 35.4785 43.6084C38.0772 44.2081 40.8314 44.5635 42.3639 43.986C45.8289 42.6311 49.316 36.2788 49.316 36.2788C47.4058 34.0576 45.7178 32.4807 44.2297 31.3701Z" fill="#E1F0FF"/>
<path d="M23.7528 56.3364C23.7528 56.3364 36.3021 59.7347 43.8538 55.2481L42.8099 47.7408C42.8099 47.7408 47.1855 41.5439 41.6105 36.5686C36.0355 31.5933 17.7559 41.3884 17.7559 41.3884C17.7559 41.3884 21.2874 52.0275 23.7528 56.3364Z" fill="white"/>
<path d="M38.7675 51.0276C31.5267 49.9615 24.1971 46.4744 20.7321 39.9443C18.9108 40.7884 17.7559 41.4103 17.7559 41.4103C17.7559 41.4103 21.2874 52.0271 23.7528 56.3361C23.7528 56.3361 36.3021 59.7344 43.8538 55.2477L43.3208 51.4052C41.766 51.3608 40.2334 51.2275 38.7675 51.0276Z" fill="#E1F0FF"/>
<path d="M10.5132 36.7244C10.5132 36.7244 0.096246 46.9859 0.251723 50.9173C0.4072 54.8486 17.3098 64.9769 20.0195 63.8885C21.9297 63.1334 22.1296 60.7346 22.1296 60.7346C22.1296 60.7346 31.6581 64.466 22.6627 59.3353C22.6627 59.3353 33.2573 62.9557 23.4845 58.3802C23.4845 58.3802 33.746 59.935 24.595 57.0919C24.595 57.0919 32.6576 57.2252 23.1735 55.7815C23.1735 55.7815 21.441 55.5594 19.7086 59.3353L10.0246 50.6507C10.0246 50.6507 18.1982 41.3887 20.908 39.1232C23.6399 36.8799 18.9534 28.8839 10.5132 36.7244Z" fill="#F89B6A"/>
<path d="M11.1575 44.7873C12.1126 45.3204 13.1121 45.7646 14.1116 46.1422C16.577 43.4547 19.4866 40.3451 20.9081 39.1457C23.6179 36.8802 18.9536 28.8842 10.4912 36.7247C10.4912 36.7247 8.66987 38.5238 6.58203 40.8782C7.84806 42.5218 9.58052 43.9211 11.1575 44.7873Z" fill="#F89B6A"/>
<path d="M27.7719 35.569C22.3525 34.4807 20.7755 29.6387 20.7755 29.6387C20.7755 29.6387 17.1329 30.1051 15.7336 30.5493C13.1127 31.3711 7.9375 37.9456 7.9375 37.9456C10.9138 44.2979 16.7331 46.0748 16.7331 46.0748L19.7093 42.3212L27.7053 41.8103C27.6831 39.7225 27.6387 37.6346 27.7719 35.569Z" fill="white"/>
<path d="M12.9124 12.9146C12.9124 12.9146 10.8911 3.11952 17.7321 0.898416C23.0406 -0.811833 30.348 -0.167713 30.2814 3.58595C30.2147 7.33962 29.4151 10.4492 26.0835 13.4699C22.7518 16.4906 22.4631 21.3104 23.7291 25.8414C24.9729 30.3725 25.1951 32.9267 21.6857 34.5037C16.7326 36.7026 14.4005 30.6168 11.6241 33.7263L8.44793 37.4134C8.44793 37.4134 5.07185 32.638 8.981 28.7733C12.9123 24.8863 13.3344 19.7556 12.9124 12.9146Z" fill="#2C2429"/>
<path d="M17.1984 31.8163C14.0444 30.7946 12.2231 28.4624 11.3125 25.6416C10.735 26.7522 9.9798 27.7961 9.00252 28.7511C5.07116 32.6159 8.46945 37.3912 8.46945 37.3912L11.6456 33.7042C14.422 30.6169 16.7542 36.6805 21.7072 34.4816C23.7729 33.5709 24.5502 32.3049 24.5724 30.4836C22.7956 32.4604 19.7749 32.6603 17.1984 31.8163Z" fill="#181818"/>
<path d="M27.2617 20.9988L34.9023 20.6212C34.9023 20.599 31.8372 24.1528 27.2617 20.9988Z" fill="white"/>
<path d="M31.5267 14.3359C31.6378 14.7357 31.7488 15.1133 31.8599 15.4909C31.971 15.8685 32.1042 16.2461 32.2597 16.6015C32.4152 16.9568 32.5929 17.29 32.7928 17.601C32.9927 17.9119 33.237 18.2007 33.5257 18.445L33.8145 18.7115L33.4813 18.8448C33.2148 18.9558 32.9482 19.0669 32.6817 19.1557C32.4152 19.2446 32.1264 19.3334 31.8377 19.4223C32.0598 19.2224 32.3041 19.0669 32.5262 18.8892C32.7706 18.7337 33.0149 18.556 33.2592 18.4228L33.237 18.8448C32.8816 18.6005 32.5484 18.2895 32.3041 17.9341C32.0598 17.5787 31.8821 17.1789 31.7488 16.7792C31.6156 16.3794 31.549 15.9573 31.5045 15.5575C31.4379 15.1577 31.4379 14.7579 31.5267 14.3359Z" fill="#D8533D"/>
<path d="M32.0137 13.5578C32.1025 13.0914 32.369 12.6694 32.7022 12.314C33.0576 11.9586 33.524 11.6921 34.0349 11.6255C34.5457 11.5366 35.101 11.6255 35.5452 11.8698C35.6119 11.892 35.6563 11.9364 35.7007 11.9586C35.7451 12.0031 35.7895 12.0253 35.8562 12.0697C35.945 12.1363 36.0339 12.2252 36.1227 12.2918C36.2782 12.4695 36.4337 12.6694 36.5447 12.8693C36.3004 12.8249 36.1005 12.736 35.8784 12.6694C35.7673 12.6472 35.6785 12.625 35.5674 12.5805C35.523 12.5583 35.4786 12.5583 35.412 12.5361C35.3675 12.5361 35.3009 12.5139 35.2565 12.5139C35.1676 12.4917 35.0566 12.4695 34.9677 12.4695C34.8789 12.4695 34.7901 12.4695 34.679 12.4473C34.5902 12.4251 34.5013 12.4473 34.4125 12.4473C34.368 12.4473 34.3236 12.4473 34.2792 12.4473L34.1459 12.4695C33.7906 12.5361 33.4352 12.6472 33.0798 12.8471C32.7688 13.0692 32.4135 13.2913 32.0137 13.5578Z" fill="#181818"/>
<path d="M29.5948 13.5582C29.0173 13.2916 28.462 13.0917 27.9289 12.9807C27.3737 12.8696 26.8406 12.8252 26.3075 12.914C25.7745 12.9807 25.2636 13.1584 24.7528 13.4249C24.2419 13.6692 23.7311 13.9802 23.1758 14.3133C23.4423 13.7359 23.8643 13.2472 24.3752 12.8252C24.886 12.4254 25.5079 12.1367 26.1965 12.0256C26.8628 11.9145 27.5736 12.0478 28.1733 12.3143C28.7507 12.5809 29.2838 13.0029 29.5948 13.5582Z" fill="#181818"/>
<path d="M33.1699 16.0231C33.1921 15.7121 33.281 15.4234 33.4365 15.1568C33.5253 15.0236 33.6141 14.8903 33.7474 14.7792C33.8807 14.6682 34.0584 14.5793 34.2805 14.5571C34.5026 14.5349 34.7247 14.6238 34.8802 14.7348C35.0356 14.8459 35.1245 15.0014 35.2133 15.1346C35.3466 15.4234 35.4132 15.7121 35.4132 16.0231C35.1911 15.801 35.0134 15.5788 34.8357 15.4012C34.7469 15.3123 34.6581 15.2457 34.5692 15.2013C34.4804 15.1568 34.4137 15.1568 34.3693 15.1568C34.236 15.1568 34.0362 15.2901 33.8363 15.4678C33.6141 15.6455 33.4142 15.8232 33.1699 16.0231Z" fill="#181818"/>
<path d="M26.3516 16.6237C26.3738 16.3127 26.4626 16.024 26.6181 15.7574C26.7069 15.6242 26.7958 15.4909 26.929 15.3798C27.0623 15.2688 27.24 15.1799 27.4621 15.1577C27.6842 15.1355 27.9063 15.2244 28.0618 15.3354C28.2173 15.4465 28.3061 15.6019 28.395 15.7352C28.5282 16.024 28.5949 16.3127 28.5949 16.6237C28.3728 16.4015 28.1951 16.1794 28.0174 16.0017C27.9285 15.9129 27.8397 15.8463 27.7509 15.8018C27.662 15.7574 27.5954 15.7574 27.551 15.7574C27.4177 15.7574 27.2178 15.8907 27.0179 16.0684C26.7958 16.2239 26.5959 16.4238 26.3516 16.6237Z" fill="#181818"/>
</svg>
