<svg width="36" height="35" viewBox="0 0 36 35" fill="none" xmlns="http://www.w3.org/2000/svg">
<g id="ion:stats-chart">
<path id="Vector" d="M7.80933 33.9062H5.62183C5.18671 33.9062 4.76941 33.7334 4.46173 33.4257C4.15405 33.118 3.9812 32.7007 3.9812 32.2656V22.4219C3.9812 21.9868 4.15405 21.5695 4.46173 21.2618C4.76941 20.9541 5.18671 20.7812 5.62183 20.7812H7.80933C8.24445 20.7812 8.66175 20.9541 8.96942 21.2618C9.2771 21.5695 9.44995 21.9868 9.44995 22.4219V32.2656C9.44995 32.7007 9.2771 33.118 8.96942 33.4257C8.66175 33.7334 8.24445 33.9062 7.80933 33.9062ZM23.1218 33.9062H20.9343C20.4992 33.9062 20.0819 33.7334 19.7742 33.4257C19.4666 33.118 19.2937 32.7007 19.2937 32.2656V15.8594C19.2937 15.4243 19.4666 15.007 19.7742 14.6993C20.0819 14.3916 20.4992 14.2188 20.9343 14.2188H23.1218C23.5569 14.2188 23.9742 14.3916 24.2819 14.6993C24.5896 15.007 24.7625 15.4243 24.7625 15.8594V32.2656C24.7625 32.7007 24.5896 33.118 24.2819 33.4257C23.9742 33.7334 23.5569 33.9062 23.1218 33.9062ZM30.7781 33.9062H28.5906C28.1555 33.9062 27.7382 33.7334 27.4305 33.4257C27.1228 33.118 26.95 32.7007 26.95 32.2656V8.20312C26.95 7.768 27.1228 7.3507 27.4305 7.04303C27.7382 6.73535 28.1555 6.5625 28.5906 6.5625H30.7781C31.2132 6.5625 31.6305 6.73535 31.9382 7.04303C32.2458 7.3507 32.4187 7.768 32.4187 8.20312V32.2656C32.4187 32.7007 32.2458 33.118 31.9382 33.4257C31.6305 33.7334 31.2132 33.9062 30.7781 33.9062ZM15.4656 33.9062H13.2781C12.843 33.9062 12.4257 33.7334 12.118 33.4257C11.8103 33.118 11.6375 32.7007 11.6375 32.2656V2.73438C11.6375 2.29925 11.8103 1.88195 12.118 1.57428C12.4257 1.2666 12.843 1.09375 13.2781 1.09375H15.4656C15.9007 1.09375 16.318 1.2666 16.6257 1.57428C16.9334 1.88195 17.1062 2.29925 17.1062 2.73438V32.2656C17.1062 32.7007 16.9334 33.118 16.6257 33.4257C16.318 33.7334 15.9007 33.9062 15.4656 33.9062Z" fill="white"/>
</g>
</svg>
