<svg width="106" height="108" viewBox="0 0 106 108" fill="none" xmlns="http://www.w3.org/2000/svg">
<path d="M37.752 7.99914L63.6723 0.5C63.6723 0.5 65.9717 4.13199 62.6794 6.90171L37.752 7.99914Z" fill="#FC8D6E"/>
<path d="M64.2209 1.80671C63.9857 1.02283 63.6722 0.526367 63.6722 0.526367L54.553 3.16544C54.5269 3.16544 56.5127 5.46483 64.2209 1.80671Z" fill="#FC8D6E"/>
<path d="M22.8594 66.0059C22.8594 66.0059 22.9639 60.4142 24.9759 59.8654C26.9879 59.3167 32.7886 59.1338 38.0406 52.0005C38.0406 52.0005 39.53 49.884 42.3781 49.4398C45.2262 48.9695 60.2245 50.2759 60.6687 49.4398C61.139 48.6036 61.4003 43.5868 55.077 42.019C48.7537 40.4513 41.6203 40.7387 40.1571 36.5319C38.6939 32.325 39.6084 19.9658 49.0411 16.8564C58.4738 13.747 68.8995 15.9419 67.4362 7.24078C67.4362 7.24078 53.065 5.59462 39.3471 7.71111C25.6291 9.82759 22.5197 16.3077 17.6597 23.441C12.7996 30.5744 4.49044 48.6037 5.11755 65.9797H22.8594V66.0059Z" fill="#F89B6A"/>
<path d="M59.1793 6.74414C59.1793 6.74414 58.5522 9.93193 67.5407 8.83449C67.5407 8.36416 67.4885 7.84158 67.4101 7.26673C67.4101 7.29286 64.1178 6.90092 59.1793 6.74414Z" fill="#FFE5CF"/>
<path d="M51.9414 49.4654L52.1504 49.5961C56.1744 49.7529 59.9631 49.8835 60.5641 49.5177L60.6425 49.4654C60.6425 49.4654 52.0982 45.0234 51.9414 49.4654Z" fill="#FFE5CF"/>
<path d="M28.4497 62.6885H0.386719V107.5H28.4497V62.6885Z" fill="#72C8BE"/>
<path d="M28.4497 62.6885H0.386719V69.7173H28.4497V62.6885Z" fill="#99DDD3"/>
<path d="M105.611 41.1317C105.611 42.6995 104.304 44.0059 102.737 44.0059H58.0031C56.4354 44.0059 55.1289 42.6995 55.1289 41.1317V16.6223C55.1289 15.0545 56.4354 13.748 58.0031 13.748H102.737C104.304 13.748 105.611 15.0545 105.611 16.6223V41.1317Z" fill="white"/>
<path d="M61.3563 23.2457C61.3563 23.3629 61.3135 23.4621 61.2278 23.5433C61.1422 23.6199 61.043 23.6582 60.9303 23.6582C60.8041 23.6582 60.7026 23.6199 60.626 23.5433C60.5494 23.4621 60.5111 23.3629 60.5111 23.2457V19.3373C60.5111 19.2201 60.5516 19.1232 60.6328 19.0466C60.7139 18.9654 60.8176 18.9249 60.9438 18.9249C61.052 18.9249 61.1467 18.9654 61.2278 19.0466C61.3135 19.1232 61.3563 19.2201 61.3563 19.3373V23.2457ZM64.4018 18.9249C64.7264 18.9249 65.0149 18.9857 65.2673 19.1074C65.5198 19.2291 65.7316 19.4004 65.9029 19.6213C66.0788 19.8377 66.2095 20.0902 66.2951 20.3787C66.3853 20.6627 66.4304 20.967 66.4304 21.2915C66.4304 21.7288 66.3515 22.1278 66.1937 22.4884C66.0359 22.8445 65.806 23.1285 65.504 23.3404C65.2065 23.5523 64.8391 23.6582 64.4018 23.6582H62.7857C62.6685 23.6582 62.5693 23.6199 62.4882 23.5433C62.4115 23.4621 62.3732 23.3629 62.3732 23.2457V19.3373C62.3732 19.2201 62.4115 19.1232 62.4882 19.0466C62.5693 18.9654 62.6685 18.9249 62.7857 18.9249H64.4018ZM64.3342 22.8806C64.6182 22.8806 64.8503 22.8085 65.0307 22.6642C65.211 22.5154 65.3417 22.3216 65.4228 22.0827C65.5085 21.8392 65.5513 21.5755 65.5513 21.2915C65.5513 21.0797 65.5265 20.8791 65.4769 20.6897C65.4319 20.4959 65.3597 20.3268 65.2606 20.1826C65.1614 20.0338 65.0352 19.9166 64.8819 19.831C64.7286 19.7453 64.5461 19.7025 64.3342 19.7025H63.1508L63.2185 19.6416V22.955L63.1779 22.8806H64.3342ZM63.8244 27.1548C63.9416 27.2134 64.0092 27.3058 64.0272 27.432C64.0498 27.5582 64.0182 27.6732 63.9326 27.7769C63.874 27.858 63.7973 27.9031 63.7027 27.9121C63.6125 27.9211 63.5201 27.9031 63.4254 27.858C63.3172 27.8084 63.2023 27.7701 63.0806 27.743C62.9634 27.716 62.8394 27.7025 62.7087 27.7025C62.4652 27.7025 62.2466 27.7408 62.0528 27.8174C61.8634 27.8941 61.7011 28.0045 61.5659 28.1488C61.4307 28.2885 61.327 28.4553 61.2549 28.6491C61.1872 28.843 61.1534 29.0571 61.1534 29.2915C61.1534 29.5665 61.1918 29.8054 61.2684 30.0083C61.3495 30.2112 61.46 30.3802 61.5997 30.5154C61.7395 30.6507 61.904 30.7521 62.0933 30.8197C62.2827 30.8828 62.4878 30.9144 62.7087 30.9144C62.8304 30.9144 62.9521 30.9031 63.0738 30.8806C63.1955 30.858 63.3127 30.8175 63.4254 30.7589C63.5201 30.7138 63.6125 30.698 63.7027 30.7115C63.7973 30.7251 63.8762 30.7724 63.9393 30.8535C64.0295 30.9662 64.0611 31.0834 64.034 31.2052C64.0115 31.3224 63.9439 31.408 63.8312 31.4621C63.7139 31.5207 63.5922 31.5703 63.466 31.6109C63.3443 31.6469 63.2203 31.674 63.0941 31.692C62.9679 31.7146 62.8394 31.7258 62.7087 31.7258C62.3841 31.7258 62.0753 31.674 61.7823 31.5703C61.4938 31.4666 61.2346 31.3133 61.0047 31.1105C60.7793 30.9076 60.6012 30.6552 60.4705 30.3532C60.3397 30.0466 60.2744 29.6927 60.2744 29.2915C60.2744 28.9444 60.333 28.6244 60.4502 28.3313C60.5719 28.0383 60.741 27.7859 60.9573 27.574C61.1782 27.3576 61.4374 27.1908 61.735 27.0736C62.0325 26.9519 62.3571 26.891 62.7087 26.891C62.907 26.891 63.1009 26.9136 63.2902 26.9587C63.4795 27.0037 63.6576 27.0691 63.8244 27.1548ZM66.4883 27.9865L65.0277 31.4215C64.9961 31.5072 64.9466 31.5748 64.8789 31.6244C64.8158 31.6695 64.746 31.692 64.6693 31.692C64.5476 31.692 64.4574 31.6582 64.3988 31.5906C64.3402 31.523 64.3109 31.4396 64.3109 31.3404C64.3109 31.2998 64.3177 31.257 64.3312 31.2119L66.0149 27.1683C66.051 27.0781 66.1051 27.0083 66.1772 26.9587C66.2539 26.9091 66.335 26.8888 66.4207 26.8978C66.5018 26.8978 66.5762 26.9226 66.6438 26.9722C66.7159 27.0173 66.7678 27.0826 66.7993 27.1683L68.4628 31.1308C68.4853 31.1894 68.4966 31.2435 68.4966 31.2931C68.4966 31.4148 68.456 31.5117 68.3748 31.5838C68.2982 31.6559 68.2126 31.692 68.1179 31.692C68.0368 31.692 67.9624 31.6672 67.8948 31.6176C67.8316 31.568 67.7821 31.5004 67.746 31.4148L66.2922 28.0271L66.4883 27.9865ZM65.2373 30.5966L65.6092 29.819H67.4349L67.5634 30.5966H65.2373ZM69.556 31.6582C69.4297 31.6582 69.317 31.6199 69.2179 31.5433C69.1187 31.4621 69.0691 31.3629 69.0691 31.2457V27.3373C69.0691 27.2201 69.1074 27.1232 69.1841 27.0466C69.2652 26.9654 69.3644 26.9249 69.4816 26.9249H71.429C71.6634 26.9249 71.8821 26.988 72.0849 27.1142C72.2923 27.2359 72.4591 27.4072 72.5853 27.6281C72.7115 27.8445 72.7746 28.0947 72.7746 28.3787C72.7746 28.55 72.7386 28.7168 72.6665 28.8791C72.5988 29.0413 72.5042 29.1878 72.3824 29.3186C72.2652 29.4493 72.1323 29.5507 71.9835 29.6229L71.9903 29.4673C72.1165 29.535 72.2202 29.6161 72.3013 29.7108C72.387 29.8009 72.4523 29.9001 72.4974 30.0083C72.547 30.112 72.5763 30.2247 72.5853 30.3464C72.6033 30.4591 72.6146 30.5583 72.6191 30.6439C72.6281 30.7296 72.6417 30.8017 72.6597 30.8603C72.6822 30.9189 72.7228 30.964 72.7814 30.9955C72.8806 31.0541 72.9414 31.1398 72.964 31.2525C72.991 31.3607 72.9662 31.4576 72.8896 31.5433C72.84 31.6019 72.7769 31.6402 72.7003 31.6582C72.6236 31.6717 72.547 31.6717 72.4704 31.6582C72.3937 31.6402 72.3306 31.6176 72.281 31.5906C72.2044 31.5455 72.1278 31.4801 72.0511 31.3945C71.9745 31.3043 71.9114 31.1849 71.8618 31.0361C71.8167 30.8873 71.7942 30.6958 71.7942 30.4613C71.7942 30.3847 71.7806 30.3148 71.7536 30.2517C71.7265 30.1841 71.6882 30.1278 71.6386 30.0827C71.5891 30.0331 71.5259 29.997 71.4493 29.9745C71.3727 29.9474 71.2825 29.9339 71.1788 29.9339H69.8129L69.9143 29.7784V31.2457C69.9143 31.3629 69.8828 31.4621 69.8197 31.5433C69.7566 31.6199 69.6687 31.6582 69.556 31.6582ZM69.8197 29.2374H71.3952C71.4764 29.2374 71.5552 29.2014 71.6319 29.1292C71.7085 29.0526 71.7716 28.9512 71.8212 28.825C71.8708 28.6942 71.8956 28.5522 71.8956 28.399C71.8956 28.2006 71.8415 28.0361 71.7333 27.9053C71.6296 27.7701 71.5169 27.7025 71.3952 27.7025H69.8332L69.9143 27.4861V29.3997L69.8197 29.2374ZM75.7399 26.9249C76.0645 26.9249 76.353 26.9857 76.6054 27.1074C76.8579 27.2291 77.0697 27.4004 77.241 27.6213C77.4169 27.8377 77.5476 28.0902 77.6332 28.3787C77.7234 28.6627 77.7685 28.967 77.7685 29.2915C77.7685 29.7288 77.6896 30.1278 77.5318 30.4884C77.374 30.8445 77.1441 31.1285 76.8421 31.3404C76.5446 31.5523 76.1772 31.6582 75.7399 31.6582H74.1238C74.0066 31.6582 73.9074 31.6199 73.8263 31.5433C73.7496 31.4621 73.7113 31.3629 73.7113 31.2457V27.3373C73.7113 27.2201 73.7496 27.1232 73.8263 27.0466C73.9074 26.9654 74.0066 26.9249 74.1238 26.9249H75.7399ZM75.6723 30.8806C75.9563 30.8806 76.1884 30.8085 76.3688 30.6642C76.5491 30.5154 76.6798 30.3216 76.761 30.0827C76.8466 29.8392 76.8894 29.5755 76.8894 29.2915C76.8894 29.0797 76.8646 28.8791 76.815 28.6897C76.77 28.4959 76.6978 28.3268 76.5987 28.1826C76.4995 28.0338 76.3733 27.9166 76.22 27.831C76.0667 27.7453 75.8842 27.7025 75.6723 27.7025H74.4889L74.5566 27.6416V30.955L74.516 30.8806H75.6723Z" fill="#72C8BE"/>
<path d="M77.9142 22.9453H59.2578V40.3736H77.9142V22.9453Z" fill="#FCC64C"/>
<path d="M64.2219 31.0723C64.2219 31.0723 63.5687 36.8469 68.5072 36.8469C73.4195 36.8469 72.8185 30.9678 72.8185 30.9678L64.2219 31.0723Z" fill="#AC2F03"/>
<path d="M72.1912 30.3922C72.1912 30.3922 72.4264 29.9481 72.6877 30.2355C72.949 30.549 72.8967 31.8032 72.0605 31.8032C72.0605 31.8032 72.1912 30.6797 72.1912 30.3922Z" fill="#FFBE7E"/>
<path d="M64.7727 30.3922C64.7727 30.3922 64.5376 29.9481 64.2763 30.2355C64.015 30.549 64.1718 31.8032 64.9818 31.8032C65.0079 31.8032 64.7989 30.6797 64.7727 30.3922Z" fill="#FFBE7E"/>
<path d="M70.2576 38.1528C70.7279 37.2644 71.2766 37.2644 71.1721 35.9841C71.1721 35.9841 69.5259 35.7228 69.5521 34.2073C69.5521 34.2073 69.0033 34.4947 68.533 34.4947C68.0627 34.5209 67.5401 34.1289 67.5401 34.1289C67.5401 34.1289 67.4095 35.7751 66.2075 36.0886C66.0507 37.4212 66.5733 38.7538 67.3572 39.4332C67.8798 39.9296 69.8134 38.9367 70.2576 38.1528Z" fill="#FFBE7E"/>
<path d="M73.4198 36.6109C72.5576 36.1928 70.1275 35.4873 70.1275 35.4873L68.5859 38.4399L67.0443 35.4873C67.0443 35.4873 64.6142 36.1928 63.7519 36.6109C63.2555 36.846 62.9681 38.7012 62.7852 40.3735H74.3866C74.2037 38.7012 73.9163 36.846 73.4198 36.6109Z" fill="#72C8BE"/>
<path d="M72.2678 29.9481C72.4507 24.67 68.5051 25.0358 68.5051 25.0358C68.5051 25.0358 64.5596 24.6439 64.7425 29.9481C64.7425 29.9481 64.7425 32.143 65.3173 32.9791C66.1012 34.0766 67.5122 34.6253 68.5051 34.6253C69.4719 34.6253 70.909 34.1288 71.6929 32.9791C72.2939 32.0646 72.2678 29.9481 72.2678 29.9481Z" fill="#FFBE7E"/>
<path d="M64.8735 30.5495C64.8735 30.5495 68.6622 30.5756 70.4913 28.0149C70.4913 28.0149 70.7526 29.844 72.0591 30.5495C72.0591 30.5495 72.1374 30.3927 72.242 30.3143C72.3465 30.2098 72.7384 30.2359 72.7645 30.6017C72.7645 30.6017 73.2871 24.9839 68.4532 24.9055C68.4532 24.9055 63.8544 24.7749 64.1418 30.5495C64.1941 30.5233 64.4554 29.8701 64.8735 30.5495Z" fill="#AC2F03"/>
<path d="M70.7804 30.68C70.7804 30.8891 70.6237 31.072 70.4146 31.072C70.2056 31.072 70.0488 30.8891 70.0488 30.68C70.0488 30.471 70.2056 30.2881 70.4146 30.2881C70.6237 30.2881 70.7804 30.471 70.7804 30.68Z" fill="#AC2F03"/>
<path d="M66.966 30.68C66.966 30.8891 66.8092 31.072 66.6002 31.072C66.3911 31.072 66.2344 30.8891 66.2344 30.68C66.2344 30.471 66.3911 30.2881 66.6002 30.2881C66.8092 30.2881 66.966 30.471 66.966 30.68Z" fill="#AC2F03"/>
<path d="M67.333 33.0063C68.0385 33.4766 68.9531 33.4243 69.6847 33.0063C69.7892 32.954 69.6847 32.7711 69.5802 32.8495C68.9269 33.2414 68.0908 33.2676 67.4114 32.8495C67.333 32.7711 67.2285 32.9279 67.333 33.0063Z" fill="#FA724C"/>
<path d="M68.9509 32.0135C68.9509 32.1441 68.7419 32.2487 68.5067 32.2487C68.2715 32.2487 68.0625 32.1441 68.0625 32.0135C68.0625 31.8828 68.2715 31.7783 68.5067 31.7783C68.7419 31.7783 68.9509 31.8828 68.9509 32.0135Z" fill="#F7A05E"/>
<path d="M69.8403 29.7655C69.8403 29.7655 70.6241 29.5304 71.1729 29.9223C71.1729 29.9223 70.9377 29.5042 70.4151 29.4781C69.8664 29.452 69.7096 29.6349 69.8403 29.7655Z" fill="#AC2F03"/>
<path d="M102.109 17.4326H81.0488V40.3481H102.109V17.4326Z" fill="#FCC64C"/>
<path d="M93.5148 19.1055H82.6973V21.2481H93.5148V19.1055Z" fill="white"/>
<path d="M100.597 22.7646H82.4375V23.836H100.597V22.7646Z" fill="white"/>
<path d="M100.597 24.8545H82.4375V25.9258H100.597V24.8545Z" fill="white"/>
<path d="M100.597 26.9453H82.4375V28.0166H100.597V26.9453Z" fill="white"/>
<path d="M95.3716 29.0352H82.4375V30.1065H95.3716V29.0352Z" fill="white"/>
<path d="M100.597 31.6484H82.4375V32.7197H100.597V31.6484Z" fill="white"/>
<path d="M98.6377 33.7383H82.4375V34.8096H98.6377V33.7383Z" fill="white"/>
<path d="M90.588 36.1934H90.1699V39.146H90.588V36.1934Z" fill="#AC2F03"/>
<path d="M89.7512 36.1934H88.8105V39.146H89.7512V36.1934Z" fill="#AC2F03"/>
<path d="M88.4181 36.1934H88V39.146H88.4181V36.1934Z" fill="#AC2F03"/>
<path d="M86.797 36.1934H86.3789V39.146H86.797V36.1934Z" fill="#AC2F03"/>
<path d="M87.6095 36.1934H87.1914V39.146H87.6095V36.1934Z" fill="#AC2F03"/>
<path d="M85.9884 36.1934H85.5703V39.146H85.9884V36.1934Z" fill="#AC2F03"/>
<path d="M85.1516 36.1934H84.2109V39.146H85.1516V36.1934Z" fill="#AC2F03"/>
<path d="M83.0099 36.1934H82.5918V39.146H83.0099V36.1934Z" fill="#AC2F03"/>
<path d="M83.8204 36.1934H83.4023V39.146H83.8204V36.1934Z" fill="#AC2F03"/>
<path d="M99.8107 36.1934H99.3926V39.146H99.8107V36.1934Z" fill="#AC2F03"/>
<path d="M100.621 36.1934H100.203V39.146H100.621V36.1934Z" fill="#AC2F03"/>
<path d="M99.0021 36.1934H98.584V39.146H99.0021V36.1934Z" fill="#AC2F03"/>
<path d="M98.1653 36.1934H97.2246V39.146H98.1653V36.1934Z" fill="#AC2F03"/>
<path d="M96.8321 36.1934H96.4141V39.146H96.8321V36.1934Z" fill="#AC2F03"/>
<path d="M95.1856 36.1934H94.7676V39.146H95.1856V36.1934Z" fill="#AC2F03"/>
<path d="M96.0235 36.1934H95.6055V39.146H96.0235V36.1934Z" fill="#AC2F03"/>
<path d="M94.3751 36.1934H93.957V39.146H94.3751V36.1934Z" fill="#AC2F03"/>
<path d="M93.5657 36.1934H92.625V39.146H93.5657V36.1934Z" fill="#AC2F03"/>
<path d="M91.3966 36.1934H90.9785V39.146H91.3966V36.1934Z" fill="#AC2F03"/>
<path d="M92.2071 36.1934H91.7891V39.146H92.2071V36.1934Z" fill="#AC2F03"/>
</svg>
