<svg width="19" height="20" viewBox="0 0 19 20" fill="none" xmlns="http://www.w3.org/2000/svg">
<g clip-path="url(#clip0_975_124155)">
<path d="M9.50512 0.644531C5.59844 0.644531 4.45588 0.648562 4.23379 0.666986C3.43207 0.73363 2.93319 0.859865 2.38969 1.13047C1.97084 1.33846 1.64051 1.57956 1.3145 1.91753C0.720767 2.53388 0.36093 3.29215 0.230668 4.1935C0.167337 4.63108 0.148913 4.72032 0.145171 6.95541C0.143732 7.70044 0.145171 8.68096 0.145171 9.99613C0.145171 13.8998 0.149489 15.0412 0.168201 15.2629C0.232971 16.043 0.355316 16.5339 0.614399 17.0708C1.10954 18.0985 2.05519 18.87 3.16925 19.1579C3.55499 19.2572 3.98104 19.3119 4.52799 19.3378C4.75973 19.3479 7.1217 19.3551 9.48511 19.3551C11.8485 19.3551 14.2119 19.3522 14.4379 19.3407C15.0712 19.3109 15.439 19.2615 15.8456 19.1564C16.9669 18.8671 17.8952 18.1071 18.4004 17.065C18.6545 16.5411 18.7833 16.0315 18.8416 15.2921C18.8543 15.1309 18.8596 12.5606 18.8596 9.99368C18.8596 7.42638 18.8538 4.8608 18.8412 4.69959C18.7822 3.94823 18.6533 3.443 18.3911 2.90899C18.1759 2.47184 17.937 2.14539 17.5901 1.81159C16.971 1.22029 16.2139 0.86044 15.3117 0.730319C14.8746 0.66713 14.7875 0.648418 12.5508 0.644531H9.50512Z" fill="#F24949"/>
<path d="M9.50125 3.0918C7.62492 3.0918 7.38944 3.1 6.65249 3.13354C5.91698 3.16722 5.41494 3.28367 4.97565 3.45452C4.52125 3.63099 4.13579 3.86705 3.75177 4.25123C3.36746 4.63526 3.13141 5.02073 2.95437 5.475C2.78309 5.91445 2.6665 6.41665 2.63339 7.1519C2.60043 7.88886 2.5918 8.12449 2.5918 10.0009C2.5918 11.8773 2.60015 12.112 2.63354 12.849C2.66736 13.5845 2.78381 14.0866 2.95451 14.5259C3.13112 14.9803 3.36717 15.3658 3.75134 15.7498C4.13521 16.1341 4.52067 16.3708 4.97479 16.5472C5.41436 16.7181 5.91655 16.8346 6.65192 16.8682C7.38886 16.9018 7.6242 16.91 9.50039 16.91C11.3769 16.91 11.6116 16.9018 12.3486 16.8682C13.0841 16.8346 13.5867 16.7181 14.0263 16.5472C14.4805 16.3708 14.8654 16.1341 15.2493 15.7498C15.6336 15.3658 15.8697 14.9803 16.0467 14.5261C16.2165 14.0866 16.3331 13.5844 16.3677 12.8492C16.4008 12.1122 16.4094 11.8773 16.4094 10.0009C16.4094 8.12449 16.4008 7.88901 16.3677 7.15204C16.3331 6.41651 16.2165 5.91445 16.0467 5.47514C15.8697 5.02073 15.6336 4.63526 15.2493 4.25123C14.865 3.86691 14.4807 3.63085 14.0259 3.45452C13.5854 3.28367 13.0831 3.16722 12.3476 3.13354C11.6106 3.1 11.376 3.0918 9.49909 3.0918H9.50125ZM8.88147 4.33687C9.06542 4.33658 9.27067 4.33687 9.50125 4.33687C11.3459 4.33687 11.5646 4.34349 12.293 4.3766C12.9666 4.4074 13.3322 4.51996 13.5758 4.61453C13.8982 4.73976 14.128 4.88946 14.3697 5.13127C14.6115 5.37309 14.7612 5.60339 14.8867 5.92582C14.9813 6.16908 15.094 6.53468 15.1247 7.20832C15.1578 7.93665 15.165 8.15544 15.165 9.9993C15.165 11.8432 15.1578 12.062 15.1247 12.7903C15.0938 13.4639 14.9813 13.8295 14.8867 14.0728C14.7615 14.3952 14.6115 14.6248 14.3697 14.8665C14.1279 15.1083 13.8983 15.258 13.5758 15.3832C13.3325 15.4782 12.9666 15.5905 12.293 15.6213C11.5647 15.6544 11.3459 15.6616 9.50125 15.6616C7.65644 15.6616 7.4378 15.6544 6.70949 15.6213C6.03587 15.5902 5.67028 15.4776 5.4266 15.3831C5.10418 15.2578 4.87389 15.1081 4.63208 14.8663C4.39026 14.6245 4.24057 14.3948 4.11506 14.0722C4.0205 13.829 3.90779 13.4633 3.87714 12.7897C3.84403 12.0614 3.83741 11.8426 3.83741 9.99758C3.83741 8.15256 3.84403 7.93493 3.87714 7.20659C3.90794 6.53296 4.0205 6.16735 4.11506 5.9238C4.24028 5.60138 4.39026 5.37108 4.63208 5.12926C4.87389 4.88744 5.10418 4.73774 5.4266 4.61223C5.67014 4.51723 6.03587 4.40496 6.70949 4.37401C7.34683 4.34522 7.59383 4.33658 8.88147 4.33515V4.33687ZM13.1892 5.48407C12.7314 5.48407 12.3601 5.855 12.3601 6.31287C12.3601 6.7706 12.7314 7.14196 13.1892 7.14196C13.6469 7.14196 14.0182 6.7706 14.0182 6.31287C14.0182 5.85514 13.6469 5.48378 13.1892 5.48378V5.48407ZM9.50125 6.45278C7.54187 6.45278 5.95326 8.04144 5.95326 10.0009C5.95326 11.9603 7.54187 13.5483 9.50125 13.5483C11.4606 13.5483 13.0487 11.9603 13.0487 10.0009C13.0487 8.04144 11.4606 6.45278 9.50125 6.45278ZM9.50125 7.69786C10.7731 7.69786 11.8042 8.72889 11.8042 10.0009C11.8042 11.2727 10.7731 12.3039 9.50125 12.3039C8.2293 12.3039 7.19829 11.2727 7.19829 10.0009C7.19829 8.72889 8.2293 7.69786 9.50125 7.69786Z" fill="white"/>
</g>
<defs>
<clipPath id="clip0_975_124155">
<rect width="19" height="19" fill="white" transform="translate(0 0.5)"/>
</clipPath>
</defs>
</svg>
