<svg width="24" height="24" viewBox="0 0 24 24" fill="none" xmlns="http://www.w3.org/2000/svg">
<path d="M6.22222 1.2C6.22222 0.537258 6.62019 0 7.11111 0H23.1111C23.602 0 24 0.537258 24 1.2V3.6C24 4.26274 23.602 4.8 23.1111 4.8H7.11111C6.62019 4.8 6.22222 4.26274 6.22222 3.6V1.2Z" fill="#F24949"/>
<path d="M0 1.2C0 0.537258 0.397969 0 0.888889 0H2.66667C3.15759 0 3.55556 0.537258 3.55556 1.2V3.6C3.55556 4.26274 3.15759 4.8 2.66667 4.8H0.888889C0.397969 4.8 0 4.26274 0 3.6V1.2Z" fill="#F24949"/>
<path d="M0 10.8C0 10.1373 0.397969 9.6 0.888889 9.6H2.66667C3.15759 9.6 3.55556 10.1373 3.55556 10.8V13.2C3.55556 13.8627 3.15759 14.4 2.66667 14.4H0.888889C0.397969 14.4 0 13.8627 0 13.2V10.8Z" fill="#F24949"/>
<path d="M0 20.4C0 19.7373 0.397969 19.2 0.888889 19.2H2.66667C3.15759 19.2 3.55556 19.7373 3.55556 20.4V22.8C3.55556 23.4627 3.15759 24 2.66667 24H0.888889C0.397969 24 0 23.4627 0 22.8V20.4Z" fill="#F24949"/>
<path d="M6.22222 10.8C6.22222 10.1373 6.62019 9.6 7.11111 9.6H23.1111C23.602 9.6 24 10.1373 24 10.8V13.2C24 13.8627 23.602 14.4 23.1111 14.4H7.11111C6.62019 14.4 6.22222 13.8627 6.22222 13.2V10.8Z" fill="#F24949"/>
<path d="M6.22222 20.4C6.22222 19.7373 6.62019 19.2 7.11111 19.2H23.1111C23.602 19.2 24 19.7373 24 20.4V22.8C24 23.4627 23.602 24 23.1111 24H7.11111C6.62019 24 6.22222 23.4627 6.22222 22.8V20.4Z" fill="#F24949"/>
</svg>
