<svg width="36" height="35" viewBox="0 0 36 35" fill="none" xmlns="http://www.w3.org/2000/svg">
<g id="solar:logout-2-bold">
<g id="Group">
<path id="Vector" fill-rule="evenodd" clip-rule="evenodd" d="M24.1906 17.5005C24.1906 17.2104 24.0754 16.9322 23.8702 16.7271C23.6651 16.522 23.3869 16.4068 23.0968 16.4068H7.09455L9.95434 13.9568C10.0635 13.8633 10.1532 13.7493 10.2183 13.6212C10.2834 13.493 10.3226 13.3534 10.3337 13.2101C10.3448 13.0668 10.3276 12.9228 10.283 12.7861C10.2384 12.6495 10.1674 12.523 10.0739 12.4139C9.98047 12.3047 9.86642 12.215 9.73831 12.1499C9.61019 12.0848 9.47051 12.0456 9.32723 12.0345C9.18396 12.0234 9.0399 12.0406 8.90329 12.0852C8.76667 12.1298 8.64017 12.2008 8.53101 12.2943L3.42684 16.6693C3.30677 16.772 3.21037 16.8994 3.14427 17.0429C3.07817 17.1864 3.04395 17.3425 3.04395 17.5005C3.04395 17.6585 3.07817 17.8146 3.14427 17.9581C3.21037 18.1016 3.30677 18.2291 3.42684 18.3318L8.53101 22.7068C8.75147 22.8955 9.03788 22.989 9.32723 22.9665C9.61659 22.9441 9.88518 22.8077 10.0739 22.5872C10.2627 22.3667 10.3561 22.0803 10.3337 21.791C10.3113 21.5016 10.1748 21.233 9.95434 21.0443L7.09601 18.5943H23.0968C23.3869 18.5943 23.6651 18.479 23.8702 18.2739C24.0754 18.0688 24.1906 17.7906 24.1906 17.5005Z" fill="white"/>
<path id="Vector_2" d="M14.3469 11.667C14.3469 12.6907 14.3469 13.2026 14.5934 13.5716C14.6995 13.7302 14.8358 13.8665 14.9944 13.9726C15.3634 14.2191 15.8753 14.2191 16.899 14.2191H23.0969C23.9672 14.2191 24.8018 14.5648 25.4171 15.1801C26.0325 15.7955 26.3782 16.6301 26.3782 17.5003C26.3782 18.3706 26.0325 19.2052 25.4171 19.8205C24.8018 20.4359 23.9672 20.7816 23.0969 20.7816H16.899C15.8753 20.7816 15.3634 20.7816 14.9944 21.0266C14.8356 21.1332 14.6994 21.2699 14.5934 21.4291C14.3469 21.798 14.3469 22.3099 14.3469 23.3337C14.3469 27.4578 14.3469 29.5214 15.6288 30.8018C16.9092 32.0837 18.9713 32.0837 23.0955 32.0837H24.5538C28.6809 32.0837 30.7415 32.0837 32.0234 30.8018C33.3053 29.5214 33.3053 27.4578 33.3053 23.3337V11.667C33.3053 7.54283 33.3053 5.47928 32.0234 4.19887C30.7415 2.91699 28.6794 2.91699 24.5553 2.91699H23.0969C18.9713 2.91699 16.9092 2.91699 15.6288 4.19887C14.3469 5.47928 14.3469 7.54283 14.3469 11.667Z" fill="white"/>
</g>
</g>
</svg>
