<svg width="26" height="25" viewBox="0 0 26 25" fill="none" xmlns="http://www.w3.org/2000/svg">
<path d="M23.4167 8.87504V4.14587C23.4167 2.67712 22.75 2.08337 21.0938 2.08337H16.8854C15.2292 2.08337 14.5625 2.67712 14.5625 4.14587V8.86462C14.5625 10.3438 15.2292 10.9271 16.8854 10.9271H21.0938C22.75 10.9375 23.4167 10.3438 23.4167 8.87504Z" stroke="white" stroke-width="1.5" stroke-linecap="round" stroke-linejoin="round"/>
<path d="M23.4167 20.5938V16.3854C23.4167 14.7292 22.75 14.0625 21.0938 14.0625H16.8854C15.2292 14.0625 14.5625 14.7292 14.5625 16.3854V20.5938C14.5625 22.25 15.2292 22.9167 16.8854 22.9167H21.0938C22.75 22.9167 23.4167 22.25 23.4167 20.5938Z" stroke="white" stroke-width="1.5" stroke-linecap="round" stroke-linejoin="round"/>
<path d="M11.4377 8.87504V4.14587C11.4377 2.67712 10.771 2.08337 9.11475 2.08337H4.90641C3.25016 2.08337 2.5835 2.67712 2.5835 4.14587V8.86462C2.5835 10.3438 3.25016 10.9271 4.90641 10.9271H9.11475C10.771 10.9375 11.4377 10.3438 11.4377 8.87504Z" stroke="white" stroke-width="1.5" stroke-linecap="round" stroke-linejoin="round"/>
<path d="M11.4377 20.5938V16.3854C11.4377 14.7292 10.771 14.0625 9.11475 14.0625H4.90641C3.25016 14.0625 2.5835 14.7292 2.5835 16.3854V20.5938C2.5835 22.25 3.25016 22.9167 4.90641 22.9167H9.11475C10.771 22.9167 11.4377 22.25 11.4377 20.5938Z" stroke="white" stroke-width="1.5" stroke-linecap="round" stroke-linejoin="round"/>
</svg>
