<svg width="26" height="25" viewBox="0 0 26 25" fill="none" xmlns="http://www.w3.org/2000/svg">
<path d="M23.4167 8.87492V4.14575C23.4167 2.677 22.75 2.08325 21.0938 2.08325H16.8854C15.2292 2.08325 14.5625 2.677 14.5625 4.14575V8.8645C14.5625 10.3437 15.2292 10.927 16.8854 10.927H21.0938C22.75 10.9374 23.4167 10.3437 23.4167 8.87492Z" fill="white" stroke="white" stroke-width="1.5" stroke-linecap="round" stroke-linejoin="round"/>
<path d="M23.4167 20.5938V16.3854C23.4167 14.7292 22.75 14.0625 21.0938 14.0625H16.8854C15.2292 14.0625 14.5625 14.7292 14.5625 16.3854V20.5938C14.5625 22.25 15.2292 22.9167 16.8854 22.9167H21.0938C22.75 22.9167 23.4167 22.25 23.4167 20.5938Z" fill="white" stroke="white" stroke-width="1.5" stroke-linecap="round" stroke-linejoin="round"/>
<path d="M11.4377 8.87492V4.14575C11.4377 2.677 10.771 2.08325 9.11475 2.08325H4.90641C3.25016 2.08325 2.5835 2.677 2.5835 4.14575V8.8645C2.5835 10.3437 3.25016 10.927 4.90641 10.927H9.11475C10.771 10.9374 11.4377 10.3437 11.4377 8.87492Z" fill="white" stroke="white" stroke-width="1.5" stroke-linecap="round" stroke-linejoin="round"/>
<path d="M11.4377 20.5938V16.3854C11.4377 14.7292 10.771 14.0625 9.11475 14.0625H4.90641C3.25016 14.0625 2.5835 14.7292 2.5835 16.3854V20.5938C2.5835 22.25 3.25016 22.9167 4.90641 22.9167H9.11475C10.771 22.9167 11.4377 22.25 11.4377 20.5938Z" fill="white" stroke="white" stroke-width="1.5" stroke-linecap="round" stroke-linejoin="round"/>
</svg>
