<svg width="36" height="35" viewBox="0 0 36 35" fill="none" xmlns="http://www.w3.org/2000/svg">
<g id="material-symbols:reviews-rounded">
<path id="Vector" d="M9.42513 26.2503L4.83138 30.8441C4.58832 31.0871 4.32096 31.1479 4.0293 31.0264C3.73763 30.9048 3.5918 30.6739 3.5918 30.3337V5.83366C3.5918 5.03158 3.87763 4.3447 4.4493 3.77304C5.02096 3.20137 5.70735 2.91602 6.50846 2.91699H29.8418C30.6439 2.91699 31.3308 3.20283 31.9024 3.77449C32.4741 4.34616 32.7594 5.03255 32.7585 5.83366V23.3337C32.7585 24.1357 32.4726 24.8226 31.901 25.3943C31.3293 25.966 30.6429 26.2513 29.8418 26.2503H9.42513ZM18.1751 18.193L20.946 19.8701C21.2133 20.0403 21.4807 20.0339 21.748 19.8512C22.0154 19.6684 22.1126 19.4195 22.0397 19.1045L21.3105 15.9326L23.7897 13.7816C24.0328 13.5628 24.1057 13.3018 24.0085 12.9985C23.9112 12.6951 23.6925 12.5308 23.3522 12.5055L20.1074 12.2503L18.8314 9.26074C18.7099 8.96908 18.4911 8.82325 18.1751 8.82325C17.8592 8.82325 17.6404 8.96908 17.5189 9.26074L16.2428 12.2503L12.998 12.5055C12.6578 12.5298 12.439 12.6941 12.3418 12.9985C12.2446 13.3028 12.3175 13.5638 12.5605 13.7816L15.0397 15.9326L14.3105 19.1045C14.2376 19.4205 14.3349 19.6698 14.6022 19.8526C14.8696 20.0354 15.1369 20.0412 15.4043 19.8701L18.1751 18.193Z" fill="white"/>
</g>
</svg>
