<svg width="173" height="163" viewBox="0 0 173 163" fill="none" xmlns="http://www.w3.org/2000/svg">
<g filter="url(#filter0_dd_2081_77706)">
<path d="M64.6273 139.972C62.0817 141.534 58.7605 140.2 57.9695 137.311C57.3267 134.962 56.6727 132.62 55.9911 130.277C55.222 127.632 52.5928 126.003 49.8823 126.457C48.002 126.772 46.1177 127.093 44.2341 127.413C43.3047 127.571 42.3755 127.729 41.4471 127.887C38.3436 128.413 35.6783 125.651 36.2845 122.55C36.4173 121.871 36.5497 121.193 36.682 120.514C36.9626 119.074 37.2431 117.636 37.5271 116.198C38.1094 113.25 36.2402 110.363 33.3037 109.708C31.7047 109.352 30.1019 108.994 28.4989 108.635C27.7634 108.471 27.0278 108.307 26.2926 108.142C23.1284 107.435 21.7123 103.713 23.6036 101.078C24.0061 100.517 24.4083 99.9567 24.8104 99.3961C26.3278 97.281 27.8446 95.1666 29.3752 93.0484C30.1215 92.0156 29.9433 90.4639 28.8397 89.7227C26.5489 88.0221 24.2387 86.3519 21.9314 84.6839C21.6353 84.4698 21.3392 84.2557 21.0432 84.0416C18.4544 82.1693 18.6248 78.2676 21.3584 76.5892C22.084 76.1436 22.8089 75.6979 23.5336 75.2523C25.0238 74.3362 26.5132 73.4204 28.0078 72.5067C30.5084 70.9781 31.3922 67.7609 30.006 65.1751C29.3098 63.8766 28.613 62.5755 27.9161 61.2743C27.5734 60.6345 27.2307 59.9947 26.8881 59.3551C25.4276 56.6288 27.0834 53.2641 30.1363 52.7468C31.1443 52.576 32.1525 52.4044 33.1605 52.2328C35.0319 51.9143 36.9025 51.596 38.7702 51.2829C41.4936 50.8265 43.4709 48.4306 43.38 45.667C43.3275 44.0719 43.2741 42.4734 43.2207 40.875C43.1898 39.9523 43.159 39.0296 43.1284 38.1076C43.0309 35.1752 45.7232 32.9419 48.5862 33.5809C49.7056 33.8308 50.8265 34.0814 51.9476 34.332C53.8202 34.7507 55.6932 35.1694 57.5595 35.5848C60.1312 36.1572 62.7437 34.8208 63.7938 32.4066C65.1374 29.3179 66.4986 26.2017 67.8654 23.0767C68.6899 21.1916 71.0084 20.5725 72.7029 21.7727C74.6325 23.1666 76.5676 24.5833 78.5043 26.0012C79.3412 26.614 80.1784 27.2269 81.0155 27.8383C83.1252 29.379 86.0261 29.209 87.9468 27.4407C89.3651 26.135 90.7875 24.823 92.2097 23.5112C93.054 22.7324 93.8982 21.9538 94.7414 21.1765C96.8983 19.1884 100.347 19.7712 101.733 22.3573C102.169 23.1702 102.604 23.9838 103.04 24.7974C103.795 26.2074 104.551 27.6176 105.305 29.0244C106.612 31.4613 109.524 32.5431 112.109 31.5729C113.882 30.9074 115.66 30.2452 117.439 29.5827C118.397 29.2258 119.355 28.8689 120.313 28.5113C123.214 27.4285 126.334 29.5099 126.437 32.601C126.461 33.3326 126.486 34.0645 126.51 34.7964C126.559 36.2651 126.608 37.7338 126.657 39.1999C126.753 42.1322 129.131 44.4729 132.061 44.5421C133.812 44.5834 135.56 44.6291 137.308 44.6748C138.159 44.6971 139.01 44.7194 139.861 44.7411C143.068 44.8231 145.171 48.1137 143.87 51.0315C143.721 51.3651 143.572 51.6987 143.423 52.0323C142.263 54.6324 141.101 57.2357 139.971 59.8557C139.388 61.0502 140.012 62.4822 141.175 63.0017C143.561 64.0672 145.934 65.1363 148.307 66.2057C148.936 66.4892 149.565 66.7727 150.194 67.0562C153.152 68.3881 153.793 72.3188 151.409 74.5167C150.857 75.0259 150.304 75.5354 149.752 76.0448C148.543 77.1601 147.334 78.2751 146.128 79.3865C143.915 81.4248 143.745 84.8603 145.726 87.1191C146.694 88.2215 147.659 89.3268 148.624 90.4327C149.078 90.9527 149.532 91.4727 149.986 91.9927C152.065 94.3713 151.143 98.0977 148.194 99.1982C147.311 99.5277 146.427 99.8569 145.543 100.186C143.802 100.835 142.061 101.483 140.325 102.134C137.682 103.126 136.235 105.965 136.967 108.689L136.97 108.702L136.974 108.715L136.978 108.729L136.981 108.742L136.985 108.756L136.989 108.769L136.992 108.783L136.996 108.796L136.999 108.81L137.003 108.823L137.007 108.837L137.01 108.85L137.014 108.864L137.018 108.877L137.021 108.891L137.025 108.904L137.028 108.918L137.032 108.931L137.036 108.945L137.039 108.958L137.043 108.972L137.047 108.985L137.05 108.999L137.054 109.012L137.057 109.026L137.061 109.039L137.065 109.053L137.068 109.066L137.072 109.08L137.076 109.093L137.079 109.107L137.083 109.12L137.086 109.134L137.09 109.147L137.094 109.161L137.097 109.174L137.101 109.187L137.105 109.201L137.108 109.214L137.112 109.228L137.115 109.241L137.119 109.255L137.123 109.268L137.126 109.282L137.13 109.295L137.134 109.309L137.137 109.322L137.141 109.336L137.144 109.349L137.148 109.363L137.152 109.376L137.155 109.39L137.159 109.403L137.162 109.417L137.166 109.43L137.17 109.444L137.173 109.457L137.177 109.471L137.181 109.484L137.184 109.498L137.188 109.511L137.191 109.525L137.195 109.538L137.199 109.551L137.202 109.565L137.206 109.578L137.21 109.592L137.213 109.605L137.217 109.619L137.22 109.632L137.224 109.646L137.228 109.659L137.231 109.673L137.235 109.686L137.239 109.7L137.242 109.713L137.246 109.727L137.249 109.74L137.253 109.754L137.257 109.767L137.26 109.781L137.264 109.794L137.268 109.808L137.271 109.821L137.275 109.834L137.278 109.848L137.282 109.861L137.286 109.875L137.289 109.888L137.293 109.902L137.297 109.915L137.3 109.929L137.304 109.942L137.307 109.956L137.311 109.969L137.315 109.983L137.318 109.996L137.322 110.01L137.325 110.023L137.329 110.037L137.333 110.05L137.336 110.064L137.34 110.077L137.344 110.091L137.347 110.104L137.351 110.117L137.354 110.131L137.358 110.144L137.362 110.158L137.365 110.171L137.369 110.185L137.373 110.198L137.376 110.212L137.38 110.225L137.383 110.239L137.387 110.252L137.391 110.266L137.394 110.279L137.398 110.293L137.402 110.306L137.405 110.32L137.409 110.333L137.412 110.347L137.416 110.36L137.42 110.373L137.423 110.387L137.427 110.4L137.43 110.414L137.434 110.427L137.438 110.441L137.441 110.454L137.445 110.468L137.449 110.481L137.452 110.495L137.456 110.508L137.459 110.522L137.463 110.535L137.467 110.549L137.47 110.562L137.474 110.576L137.478 110.589L137.481 110.602L137.485 110.616L137.488 110.629L137.492 110.643L137.496 110.656L137.499 110.67L137.503 110.683L137.507 110.697L137.51 110.71L137.514 110.724L137.517 110.737L137.521 110.751L137.525 110.764L137.528 110.778L137.532 110.791L137.535 110.804L137.539 110.818L137.543 110.831L137.546 110.845L137.55 110.858L137.554 110.872L137.557 110.885L137.561 110.899L137.564 110.912L137.568 110.926L137.572 110.939L137.575 110.953L137.579 110.966L137.583 110.98L137.586 110.993L137.59 111.007L137.593 111.02L137.597 111.033L137.601 111.047L137.604 111.06L137.608 111.074L137.611 111.087L137.615 111.101L137.619 111.114L137.622 111.128L137.626 111.141L137.63 111.155L137.633 111.168L137.637 111.182L137.64 111.195L137.644 111.209L137.648 111.222L137.651 111.235L137.655 111.249L137.659 111.262L137.662 111.276L137.666 111.289L137.669 111.303L137.673 111.316L137.677 111.33L137.68 111.343L137.684 111.357L137.687 111.37L137.691 111.384L137.695 111.397L137.698 111.411L137.702 111.424L137.706 111.437L137.709 111.451L137.713 111.464L137.716 111.478L137.72 111.491L137.724 111.505L137.727 111.518L137.731 111.532L137.735 111.545L137.738 111.559L137.742 111.572L137.745 111.586L137.749 111.599L137.753 111.612L137.756 111.626L137.76 111.639L137.763 111.653L137.767 111.666L137.771 111.68L137.774 111.693L137.778 111.707L137.782 111.72L137.785 111.734L137.789 111.747L137.792 111.761L137.796 111.774L137.8 111.788L137.803 111.801L137.807 111.814L137.811 111.828L137.814 111.841L137.818 111.855L137.821 111.868L137.825 111.882L137.829 111.895L137.832 111.909L137.836 111.922L137.839 111.936L137.843 111.949L137.847 111.963L137.85 111.976L137.854 111.989L137.858 112.003L137.861 112.016L137.865 112.03L137.868 112.043L137.872 112.057L137.876 112.07L137.879 112.084L137.883 112.097L137.887 112.111L137.89 112.124L137.894 112.138L137.897 112.151L137.901 112.164L137.905 112.178L137.908 112.191L137.912 112.205L137.915 112.218L137.919 112.232L137.923 112.245L137.926 112.259L137.93 112.272L137.934 112.286L137.937 112.299L137.941 112.313L137.944 112.326L137.948 112.339L137.952 112.353L137.955 112.366L137.959 112.38L137.962 112.393L137.966 112.407L137.97 112.42L137.973 112.434L137.977 112.447L137.981 112.461L137.984 112.474L137.988 112.488L137.991 112.501L137.995 112.514L137.999 112.528L138.002 112.541L138.006 112.555L138.01 112.568L138.013 112.582L138.017 112.595L138.02 112.609L138.024 112.622L138.028 112.636L138.031 112.649L138.035 112.663L138.038 112.676L138.042 112.689L138.046 112.703L138.049 112.716L138.053 112.73L138.057 112.743L138.06 112.757L138.064 112.77L138.067 112.784L138.071 112.797L138.075 112.811L138.078 112.824L138.082 112.838L138.085 112.851L138.089 112.864L138.093 112.878L138.096 112.891L138.1 112.905L138.104 112.918L138.107 112.932L138.111 112.945L138.114 112.959L138.118 112.972L138.122 112.986L138.125 112.999L138.129 113.013L138.133 113.026L138.136 113.039L138.14 113.053L138.143 113.066L138.147 113.08L138.151 113.093L138.154 113.107L138.158 113.12L138.161 113.134L138.165 113.147L138.169 113.161L138.172 113.174L138.176 113.188L138.18 113.201L138.183 113.214L138.187 113.228L138.19 113.241L138.194 113.255L138.198 113.268L138.201 113.282L138.205 113.295L138.208 113.309L138.212 113.322L138.216 113.336L138.219 113.349L138.223 113.363L138.227 113.376L138.23 113.389L138.234 113.403L138.237 113.416L138.241 113.43L138.245 113.443L138.248 113.457L138.252 113.47L138.256 113.484L138.259 113.497L138.263 113.511L138.266 113.524L138.27 113.538L138.274 113.551L138.277 113.564L138.281 113.578L138.284 113.591L138.288 113.605L138.292 113.618L138.295 113.632L138.299 113.645L138.303 113.659L138.306 113.672L138.31 113.686L138.313 113.699L138.317 113.713L138.321 113.726L138.324 113.739L138.328 113.753L138.331 113.766L138.335 113.78L138.339 113.793L138.342 113.807L138.346 113.82L138.35 113.834L138.353 113.847L138.357 113.861L138.36 113.874L138.364 113.888L138.368 113.901L138.371 113.914L138.375 113.928L138.379 113.941L138.382 113.955L138.386 113.968L138.389 113.982L138.393 113.995L138.397 114.009L138.4 114.022L138.404 114.036L138.407 114.049L138.411 114.063L138.415 114.076L138.418 114.089L138.422 114.103L138.426 114.116L138.429 114.13L138.433 114.143L138.436 114.157L138.44 114.17L138.444 114.184L138.447 114.197L138.451 114.211L138.455 114.224L138.458 114.238L138.462 114.251L138.465 114.264L138.469 114.278L138.473 114.291L138.476 114.305L138.48 114.318L138.483 114.332L138.487 114.345L138.491 114.359L138.494 114.372L138.498 114.386L138.502 114.399L138.505 114.413L138.509 114.426L138.512 114.439L138.516 114.453L138.52 114.466L138.523 114.48L138.527 114.493L138.53 114.507L138.534 114.52L138.538 114.534L138.541 114.547L138.545 114.561L138.549 114.574L138.552 114.588L138.556 114.601L138.559 114.614L138.563 114.628L138.567 114.641L138.57 114.655L138.574 114.668L138.578 114.682L138.581 114.695L138.585 114.709L138.588 114.722L138.592 114.736L138.596 114.749L138.599 114.763L138.603 114.776L138.606 114.79L138.61 114.803L138.614 114.816L138.617 114.83L138.621 114.843L138.625 114.857L138.628 114.87L138.632 114.884L138.635 114.897L138.639 114.911L138.643 114.924L138.646 114.938L138.65 114.951L138.654 114.965L138.657 114.978L138.661 114.992L138.664 115.005L138.668 115.018L138.672 115.032L138.675 115.045L138.679 115.059L138.682 115.072L138.686 115.086L138.69 115.099L138.693 115.113L138.697 115.126L138.701 115.14L138.704 115.153L138.708 115.167L138.711 115.18L138.715 115.194L138.719 115.207L138.722 115.22L138.726 115.234L138.73 115.247L138.733 115.261L138.737 115.274L138.74 115.288L138.744 115.301L138.748 115.315L138.751 115.328L138.755 115.342L138.758 115.355L138.762 115.369L138.766 115.382L138.769 115.396L138.773 115.409L138.777 115.422L138.78 115.436L138.784 115.449L138.787 115.463L138.791 115.476L138.795 115.49L138.798 115.503L138.802 115.517L138.806 115.53L138.809 115.544L138.813 115.557L138.816 115.571L138.82 115.584C139.597 118.474 137.39 121.295 134.403 121.22C133.278 121.192 132.154 121.162 131.029 121.133C129.095 121.082 127.16 121.032 125.222 120.987C122.543 120.925 120.224 122.815 119.716 125.44C119.394 127.105 119.068 128.774 118.743 130.443C118.551 131.426 118.36 132.408 118.169 133.39C117.615 136.24 114.557 137.832 111.918 136.635C111.433 136.416 110.948 136.195 110.463 135.975C108.061 134.886 105.657 133.795 103.26 132.728C101.231 131.696 98.7213 132.447 97.4182 134.255C96.207 135.936 95.0024 137.615 93.7982 139.294C93.1391 140.212 92.4801 141.131 91.8203 142.049C90.13 144.402 86.6849 144.555 84.7774 142.368C84.1189 141.613 83.4596 140.857 82.8003 140.102C81.682 138.821 80.564 137.54 79.451 136.262C77.6952 134.245 74.7414 133.772 72.4548 135.168C70.8003 136.178 69.1513 137.192 67.5031 138.206C66.5446 138.795 65.5863 139.384 64.6273 139.972Z" stroke="#F24949" shape-rendering="crispEdges"/>
</g>
<g filter="url(#filter1_dd_2081_77706)">
<path d="M76.2176 86.7403L53.5249 70.2863L54.8081 70.6112L57.4833 88.4845L53.2784 89.0882L49.426 62.2553L49.6042 62.2297L72.0118 78.7247L71.0087 78.5777L68.3333 60.45L72.4669 59.8565L76.3245 86.725L76.2176 86.7403ZM89.78 84.2476C87.9983 84.5034 86.4284 84.3772 85.0704 83.8691C83.7124 83.3609 82.6139 82.5488 81.7747 81.4327C80.9322 80.2929 80.4001 78.9509 80.1784 77.4067C79.9601 75.8863 80.1441 74.4657 80.7303 73.145C81.3166 71.8243 82.2 70.7155 83.3805 69.8186C84.5814 68.8946 85.9658 68.32 87.5337 68.0949C89.6005 67.7982 91.386 68.1601 92.8903 69.1807C94.415 70.1741 95.5599 71.7312 96.3251 73.8519L84.762 79.6945L83.5132 77.5826L92.506 72.8364L91.7529 73.4173C91.3892 72.7421 90.873 72.1859 90.204 71.7485C89.5588 71.3077 88.7136 71.1623 87.6683 71.3124C86.8368 71.4318 86.1294 71.7395 85.5459 72.2354C84.9591 72.7076 84.5268 73.3273 84.249 74.0946C83.9915 74.8347 83.931 75.6799 84.0675 76.6301C84.2073 77.6041 84.532 78.4304 85.0416 79.1088C85.5512 79.7873 86.1795 80.279 86.9264 80.584C87.6699 80.8652 88.4811 80.9426 89.3601 80.8165C89.9778 80.7278 90.5564 80.5356 91.0958 80.2399C91.6353 79.9443 92.1289 79.5824 92.5766 79.1545L94.8186 81.8512C94.1063 82.4627 93.2971 82.991 92.3912 83.4363C91.5056 83.8544 90.6352 84.1248 89.78 84.2476ZM109.065 65.6946L114.336 74.2848L113.598 74.4635L115.872 64.7174L119.791 64.1546L115.206 81.1063L108.896 71.6106L105.941 82.4365L96.7002 67.4699L100.62 66.9071L106.252 75.9909L104.827 75.941L106.965 68.2874L105.609 66.1908L109.065 65.6946Z" fill="#F24949"/>
</g>
<g filter="url(#filter2_dd_2081_77706)">
<path d="M70.5723 97.9148L72.746 97.6027L73.8716 105.442L72.4818 105.642L71.5473 99.1326L70.7633 99.2451L70.5723 97.9148ZM74.7913 101.213C74.7618 101.007 74.8126 100.826 74.9437 100.669C75.0737 100.505 75.2297 100.41 75.4119 100.384C75.5782 100.36 75.7468 100.409 75.9177 100.53C76.0875 100.643 76.1872 100.802 76.2167 101.008C76.2486 101.23 76.1989 101.419 76.0678 101.575C75.9355 101.723 75.7862 101.809 75.6199 101.833C75.4378 101.859 75.2624 101.82 75.0938 101.715C74.924 101.602 74.8232 101.434 74.7913 101.213ZM75.2637 104.503C75.2342 104.297 75.285 104.116 75.4161 103.96C75.5461 103.796 75.7021 103.7 75.8843 103.674C76.0506 103.65 76.2192 103.699 76.3901 103.82C76.5599 103.933 76.6596 104.092 76.6891 104.298C76.7209 104.52 76.6713 104.709 76.5402 104.865C76.4079 105.013 76.2586 105.1 76.0923 105.123C75.9102 105.15 75.7348 105.11 75.5662 105.005C75.3964 104.892 75.2956 104.725 75.2637 104.503ZM76.6622 97.0404L78.8359 96.7283L79.9615 104.568L78.5717 104.767L77.6372 98.2582L76.8532 98.3708L76.6622 97.0404ZM92.4584 102.083C92.3521 102.187 92.1814 102.321 91.9462 102.484C91.711 102.647 91.426 102.801 91.0912 102.946C90.7632 103.082 90.3888 103.176 89.9679 103.228C89.2937 103.317 88.6708 103.285 88.0994 103.133C87.5268 102.973 87.026 102.721 86.597 102.379C86.1668 102.028 85.8118 101.611 85.532 101.125C85.259 100.631 85.0805 100.091 84.9963 99.505C84.902 98.8478 84.9185 98.2312 85.046 97.6552C85.1734 97.0793 85.3987 96.566 85.722 96.1155C86.0441 95.6571 86.4506 95.2795 86.9414 94.9827C87.4322 94.686 87.9864 94.4932 88.6041 94.4046C89.1505 94.3261 89.6483 94.3314 90.0975 94.4205C90.5535 94.5005 90.9411 94.6105 91.2602 94.7506L90.9014 96.1356C90.657 96.0091 90.3576 95.8945 90.0034 95.7918C89.6493 95.6891 89.2623 95.6678 88.8426 95.7281C88.4625 95.7827 88.1096 95.9142 87.7839 96.1226C87.4571 96.323 87.1835 96.5846 86.9631 96.9072C86.7416 97.2218 86.5783 97.5766 86.4734 97.9716C86.3764 98.3653 86.3591 98.78 86.4217 99.2155C86.4865 99.6669 86.6135 100.073 86.8027 100.434C86.9986 100.785 87.2432 101.082 87.5364 101.323C87.8375 101.562 88.1776 101.736 88.5567 101.843C88.9426 101.941 89.3572 101.958 89.8007 101.895C90.2521 101.83 90.6344 101.706 90.9476 101.524C91.2677 101.332 91.5181 101.135 91.699 100.931L92.4584 102.083ZM94.1272 102.534L92.797 93.2691L94.1037 93.0816L94.8711 98.4267L94.8183 98.2282C94.9459 97.8785 95.1652 97.5763 95.4761 97.3215C95.786 97.0588 96.1784 96.8934 96.6536 96.8252C97.1287 96.757 97.5406 96.8393 97.8892 97.0721C98.2378 97.3049 98.4485 97.6464 98.5212 98.0967L99.0567 101.826L97.7263 102.017L97.2591 98.7628C97.2148 98.5105 97.1145 98.3188 96.9583 98.1877C96.8009 98.0487 96.5752 97.9962 96.281 98.0303C96.0118 98.069 95.7822 98.1868 95.5923 98.3838C95.4024 98.5808 95.2645 98.8309 95.1787 99.1342C95.0997 99.4284 95.0858 99.7537 95.137 100.11L95.4576 102.343L94.1272 102.534ZM103.023 101.39C102.548 101.459 102.102 101.422 101.686 101.279C101.277 101.136 100.934 100.886 100.657 100.53C100.378 100.166 100.197 99.6947 100.114 99.1166C100.033 98.5464 100.077 98.043 100.249 97.6061C100.428 97.1602 100.691 96.7991 101.039 96.5229C101.395 96.2454 101.799 96.0743 102.25 96.0095C102.734 95.9401 103.135 95.9795 103.455 96.1274C103.784 96.2743 104.05 96.4664 104.253 96.7039L104.21 96.9042L104.207 95.9589L105.431 95.7833L106.152 100.808L104.822 100.999L104.646 99.7753L104.823 100.077C104.798 100.129 104.746 100.218 104.667 100.342C104.586 100.459 104.472 100.592 104.324 100.743C104.176 100.893 103.993 101.029 103.776 101.149C103.567 101.268 103.316 101.348 103.023 101.39ZM103.234 100.245C103.472 100.211 103.679 100.136 103.857 100.022C104.042 99.9064 104.191 99.7598 104.303 99.5821C104.423 99.4032 104.498 99.1984 104.53 98.9676L104.373 97.8748C104.28 97.678 104.152 97.5146 103.988 97.3846C103.822 97.2467 103.63 97.1489 103.412 97.0914C103.202 97.0327 102.974 97.021 102.728 97.0562C102.459 97.0949 102.219 97.198 102.009 97.3656C101.798 97.5332 101.639 97.746 101.531 98.004C101.43 98.2609 101.402 98.5438 101.446 98.8526C101.49 99.1535 101.6 99.4165 101.778 99.6415C101.956 99.8665 102.174 100.033 102.432 100.142C102.69 100.25 102.957 100.284 103.234 100.245ZM107.426 93.2419L108.768 93.0492L109.085 95.2586L110.392 95.071L110.542 96.1163L109.235 96.3039L109.806 100.283L108.464 100.476L107.893 96.4966L107.038 96.6194L106.888 95.5741L107.743 95.4513L107.426 93.2419Z" fill="#F24949"/>
</g>
<defs>
<filter id="filter0_dd_2081_77706" x="14.7007" y="19.4882" width="142.664" height="132.927" filterUnits="userSpaceOnUse" color-interpolation-filters="sRGB">
<feFlood flood-opacity="0" result="BackgroundImageFix"/>
<feColorMatrix in="SourceAlpha" type="matrix" values="0 0 0 0 0 0 0 0 0 0 0 0 0 0 0 0 0 0 127 0" result="hardAlpha"/>
<feOffset dy="4"/>
<feGaussianBlur stdDeviation="2"/>
<feComposite in2="hardAlpha" operator="out"/>
<feColorMatrix type="matrix" values="0 0 0 0 0 0 0 0 0 0 0 0 0 0 0 0 0 0 0.25 0"/>
<feBlend mode="normal" in2="BackgroundImageFix" result="effect1_dropShadow_2081_77706"/>
<feColorMatrix in="SourceAlpha" type="matrix" values="0 0 0 0 0 0 0 0 0 0 0 0 0 0 0 0 0 0 127 0" result="hardAlpha"/>
<feOffset dy="4"/>
<feGaussianBlur stdDeviation="2"/>
<feComposite in2="hardAlpha" operator="out"/>
<feColorMatrix type="matrix" values="0 0 0 0 0 0 0 0 0 0 0 0 0 0 0 0 0 0 0.25 0"/>
<feBlend mode="normal" in2="effect1_dropShadow_2081_77706" result="effect2_dropShadow_2081_77706"/>
<feBlend mode="normal" in="SourceGraphic" in2="effect2_dropShadow_2081_77706" result="shape"/>
</filter>
<filter id="filter1_dd_2081_77706" x="45.4258" y="52.3952" width="80.6628" height="45.6195" filterUnits="userSpaceOnUse" color-interpolation-filters="sRGB">
<feFlood flood-opacity="0" result="BackgroundImageFix"/>
<feColorMatrix in="SourceAlpha" type="matrix" values="0 0 0 0 0 0 0 0 0 0 0 0 0 0 0 0 0 0 127 0" result="hardAlpha"/>
<feOffset dy="4"/>
<feGaussianBlur stdDeviation="2"/>
<feComposite in2="hardAlpha" operator="out"/>
<feColorMatrix type="matrix" values="0 0 0 0 0 0 0 0 0 0 0 0 0 0 0 0 0 0 0.25 0"/>
<feBlend mode="normal" in2="BackgroundImageFix" result="effect1_dropShadow_2081_77706"/>
<feColorMatrix in="SourceAlpha" type="matrix" values="0 0 0 0 0 0 0 0 0 0 0 0 0 0 0 0 0 0 127 0" result="hardAlpha"/>
<feOffset dy="4"/>
<feGaussianBlur stdDeviation="2"/>
<feComposite in2="hardAlpha" operator="out"/>
<feColorMatrix type="matrix" values="0 0 0 0 0 0 0 0 0 0 0 0 0 0 0 0 0 0 0.25 0"/>
<feBlend mode="normal" in2="effect1_dropShadow_2081_77706" result="effect2_dropShadow_2081_77706"/>
<feBlend mode="normal" in="SourceGraphic" in2="effect2_dropShadow_2081_77706" result="shape"/>
</filter>
<filter id="filter2_dd_2081_77706" x="66.3677" y="90.8305" width="48.7642" height="23.0546" filterUnits="userSpaceOnUse" color-interpolation-filters="sRGB">
<feFlood flood-opacity="0" result="BackgroundImageFix"/>
<feColorMatrix in="SourceAlpha" type="matrix" values="0 0 0 0 0 0 0 0 0 0 0 0 0 0 0 0 0 0 127 0" result="hardAlpha"/>
<feOffset dy="4"/>
<feGaussianBlur stdDeviation="2"/>
<feComposite in2="hardAlpha" operator="out"/>
<feColorMatrix type="matrix" values="0 0 0 0 0 0 0 0 0 0 0 0 0 0 0 0 0 0 0.25 0"/>
<feBlend mode="normal" in2="BackgroundImageFix" result="effect1_dropShadow_2081_77706"/>
<feColorMatrix in="SourceAlpha" type="matrix" values="0 0 0 0 0 0 0 0 0 0 0 0 0 0 0 0 0 0 127 0" result="hardAlpha"/>
<feOffset dy="4"/>
<feGaussianBlur stdDeviation="2"/>
<feComposite in2="hardAlpha" operator="out"/>
<feColorMatrix type="matrix" values="0 0 0 0 0 0 0 0 0 0 0 0 0 0 0 0 0 0 0.25 0"/>
<feBlend mode="normal" in2="effect1_dropShadow_2081_77706" result="effect2_dropShadow_2081_77706"/>
<feBlend mode="normal" in="SourceGraphic" in2="effect2_dropShadow_2081_77706" result="shape"/>
</filter>
</defs>
</svg>
