<svg width="29" height="24" viewBox="0 0 29 24" fill="none" xmlns="http://www.w3.org/2000/svg">
<path d="M19.5528 10.377C21.7127 10.9992 24.2622 10.377 24.2622 10.377C23.5231 13.6076 21.1764 15.6304 17.7936 15.8755C17.4679 16.633 17.0321 17.338 16.5021 17.9698C15.9721 18.6017 15.3527 19.1523 14.6647 19.6059C13.975 20.0594 13.2247 20.4096 12.4345 20.6451C11.6443 20.8806 10.8237 21.0016 10 21L12.5494 12.8947C15.1707 4.56338 16.5149 4 22.7312 4H27C26.2864 7.14473 23.8248 9.54783 19.5528 10.3754V10.377Z" fill="#F67C7C"/>
<path d="M9.50119 4C10.617 4 11.7233 4.2196 12.7545 4.64767C13.7857 5.07415 14.7228 5.70113 15.5113 6.49043C16.2999 7.27973 16.9273 8.21702 17.3535 9.2482C17.781 10.2796 18.0006 11.3849 18 12.5009C18 15.9381 15.9296 19.038 12.7529 20.3525C9.57622 21.6685 5.92065 20.9413 3.48946 18.5097C1.05826 16.0798 0.331938 12.4229 1.6473 9.2482C2.96267 6.07191 6.06272 4.00159 9.4996 4.00159L9.50119 4ZM9.50119 15.0486C9.83653 15.0493 10.1687 14.9838 10.4785 14.856C10.7884 14.7282 11.0698 14.5405 11.3066 14.3038C11.5432 14.0666 11.7308 13.7855 11.859 13.4764C11.9867 13.166 12.0521 12.835 12.0521 12.5009C12.0521 11.4697 11.4311 10.5404 10.4781 10.1457C9.52514 9.75106 8.42847 9.96907 7.69895 10.6979C6.96943 11.4267 6.75074 12.5231 7.14662 13.4764C7.33886 13.9418 7.66542 14.3399 8.08489 14.62C8.50437 14.9002 8.99786 15.0499 9.50279 15.0502L9.50119 15.0486Z" fill="#F24949"/>
</svg>
