<svg width="24" height="25" viewBox="0 0 24 25" fill="none" xmlns="http://www.w3.org/2000/svg">
<path d="M12.1555 11.3228C12.0586 11.3124 11.9422 11.3124 11.8355 11.3228C9.52731 11.2395 7.69434 9.20825 7.69434 6.70825C7.69434 4.15617 9.61459 2.08325 12.0004 2.08325C14.3764 2.08325 16.3064 4.15617 16.3064 6.70825C16.2967 9.20825 14.4637 11.2395 12.1555 11.3228Z" stroke="white" stroke-width="1.5" stroke-linecap="round" stroke-linejoin="round"/>
<path d="M7.30614 15.1667C4.95915 16.8542 4.95915 19.6042 7.30614 21.2813C9.97316 23.198 14.3471 23.198 17.0141 21.2813C19.3611 19.5938 19.3611 16.8438 17.0141 15.1667C14.3568 13.2605 9.98286 13.2605 7.30614 15.1667Z" stroke="white" stroke-width="1.5" stroke-linecap="round" stroke-linejoin="round"/>
</svg>
