<svg width="36" height="35" viewBox="0 0 36 35" fill="none" xmlns="http://www.w3.org/2000/svg">
<g id="material-symbols:contact-support-rounded">
<path id="Vector" d="M18.375 32.0837L18.0104 27.7087H17.6458C14.1944 27.7087 11.2656 26.5055 8.85937 24.0993C6.45312 21.693 5.25 18.7642 5.25 15.3128C5.25 11.8614 6.45312 8.93262 8.85937 6.52637C11.2656 4.12012 14.1944 2.91699 17.6458 2.91699C19.3715 2.91699 20.982 3.2388 22.4773 3.88241C23.9726 4.52602 25.2851 5.41317 26.4148 6.54387C27.5445 7.67456 28.4312 8.98706 29.0748 10.4814C29.7184 11.9757 30.0407 13.5862 30.0417 15.3128C30.0417 19.0073 28.9358 22.3191 26.724 25.2484C24.5122 28.1778 21.7292 30.4562 18.375 32.0837ZM17.6094 23.2972C18.0226 23.2972 18.375 23.1514 18.6667 22.8597C18.9583 22.568 19.1042 22.2156 19.1042 21.8024C19.1042 21.3892 18.9583 21.0368 18.6667 20.7451C18.375 20.4534 18.0226 20.3076 17.6094 20.3076C17.1962 20.3076 16.8437 20.4534 16.5521 20.7451C16.2604 21.0368 16.1146 21.3892 16.1146 21.8024C16.1146 22.2156 16.2604 22.568 16.5521 22.8597C16.8437 23.1514 17.1962 23.2972 17.6094 23.2972ZM17.6458 18.667C17.9132 18.667 18.1562 18.5698 18.375 18.3753C18.5937 18.1809 18.7396 17.9135 18.8125 17.5732C18.8611 17.2573 18.9948 16.9714 19.2135 16.7157C19.4323 16.46 19.809 16.0653 20.3438 15.5316C20.7812 15.0941 21.1458 14.6201 21.4375 14.1097C21.7292 13.5993 21.875 13.0524 21.875 12.4691C21.875 11.2295 21.456 10.2996 20.6179 9.67928C19.7799 9.05901 18.7892 8.74935 17.6458 8.75033C16.7951 8.75033 16.0597 8.94477 15.4394 9.33366C14.8191 9.72255 14.315 10.2087 13.9271 10.792C13.7569 11.0594 13.7268 11.3389 13.8367 11.6305C13.9465 11.9222 14.1711 12.1288 14.5104 12.2503C14.7535 12.3475 14.9965 12.3475 15.2396 12.2503C15.4826 12.1531 15.7014 11.9708 15.8958 11.7034C16.0903 11.4361 16.3275 11.2173 16.6075 11.0472C16.8875 10.8771 17.2336 10.792 17.6458 10.792C18.3021 10.792 18.7945 10.9743 19.1231 11.3389C19.4517 11.7035 19.6156 12.1045 19.6146 12.542C19.6146 12.9552 19.4931 13.3261 19.25 13.6547C19.0069 13.9833 18.7153 14.3173 18.375 14.6566C17.6944 15.2399 17.2385 15.7139 17.0071 16.0784C16.7757 16.443 16.6362 16.9413 16.5885 17.5732C16.5642 17.8649 16.6556 18.1201 16.8627 18.3389C17.0698 18.5576 17.3308 18.667 17.6458 18.667Z" fill="white"/>
</g>
</svg>
