<svg width="16" height="14" viewBox="0 0 16 14" fill="none" xmlns="http://www.w3.org/2000/svg">
<g id="fa-solid:crown" clip-path="url(#clip0_1782_19612)">
<path id="Vector" d="M13.2 12.25H2.8C2.58 12.25 2.4 12.4469 2.4 12.6875V13.5625C2.4 13.8031 2.58 14 2.8 14H13.2C13.42 14 13.6 13.8031 13.6 13.5625V12.6875C13.6 12.4469 13.42 12.25 13.2 12.25ZM14.8 3.5C14.1375 3.5 13.6 4.08789 13.6 4.8125C13.6 5.00664 13.64 5.18711 13.71 5.35391L11.9 6.54063C11.515 6.79219 11.0175 6.65 10.795 6.22344L8.7575 2.32422C9.025 2.08359 9.2 1.72266 9.2 1.3125C9.2 0.587891 8.6625 0 8 0C7.3375 0 6.8 0.587891 6.8 1.3125C6.8 1.72266 6.975 2.08359 7.2425 2.32422L5.205 6.22344C4.9825 6.65 4.4825 6.79219 4.1 6.54063L2.2925 5.35391C2.36 5.18984 2.4025 5.00664 2.4025 4.8125C2.4025 4.08789 1.865 3.5 1.2025 3.5C0.54 3.5 0 4.08789 0 4.8125C0 5.53711 0.5375 6.125 1.2 6.125C1.265 6.125 1.33 6.11406 1.3925 6.10313L3.2 11.375H12.8L14.6075 6.10313C14.67 6.11406 14.735 6.125 14.8 6.125C15.4625 6.125 16 5.53711 16 4.8125C16 4.08789 15.4625 3.5 14.8 3.5Z" fill="#F24949"/>
</g>
<defs>
<clipPath id="clip0_1782_19612">
<rect width="16" height="14" fill="white"/>
</clipPath>
</defs>
</svg>
