<svg width="26" height="25" viewBox="0 0 26 25" fill="none" xmlns="http://www.w3.org/2000/svg">
<path d="M2.5835 13.4166V11.5832C2.5835 10.4999 3.46891 9.60408 4.56266 9.60408C6.44808 9.60408 7.21891 8.27075 6.271 6.63533C5.72933 5.69783 6.05225 4.47908 7.00016 3.93741L8.80225 2.90616C9.62516 2.41658 10.6877 2.70825 11.1772 3.53116L11.2918 3.72908C12.2293 5.3645 13.771 5.3645 14.7189 3.72908L14.8335 3.53116C15.3231 2.70825 16.3856 2.41658 17.2085 2.90616L19.0106 3.93741C19.9585 4.47908 20.2814 5.69783 19.7397 6.63533C18.7918 8.27075 19.5627 9.60408 21.4481 9.60408C22.5314 9.60408 23.4272 10.4895 23.4272 11.5832V13.4166C23.4272 14.4999 22.5418 15.3957 21.4481 15.3957C19.5627 15.3957 18.7918 16.7291 19.7397 18.3645C20.2814 19.3124 19.9585 20.5207 19.0106 21.0624L17.2085 22.0937C16.3856 22.5832 15.3231 22.2916 14.8335 21.4687L14.7189 21.2707C13.7814 19.6353 12.2397 19.6353 11.2918 21.2707L11.1772 21.4687C10.6877 22.2916 9.62516 22.5832 8.80225 22.0937L7.00016 21.0624C6.05225 20.5207 5.72933 19.302 6.271 18.3645C7.21891 16.7291 6.44808 15.3957 4.56266 15.3957C3.46891 15.3957 2.5835 14.4999 2.5835 13.4166Z" fill="white" stroke="white" stroke-width="1.5" stroke-miterlimit="10" stroke-linecap="round" stroke-linejoin="round"/>
<path d="M13 15.625C14.7259 15.625 16.125 14.2259 16.125 12.5C16.125 10.7741 14.7259 9.375 13 9.375C11.2741 9.375 9.875 10.7741 9.875 12.5C9.875 14.2259 11.2741 15.625 13 15.625Z" fill="white" stroke="#F24949" stroke-width="1.5" stroke-miterlimit="10" stroke-linecap="round" stroke-linejoin="round"/>
</svg>
