<svg width="36" height="35" viewBox="0 0 36 35" fill="none" xmlns="http://www.w3.org/2000/svg">
<g id="solar:settings-bold">
<path id="Vector" fill-rule="evenodd" clip-rule="evenodd" d="M21.3235 3.13866C20.7839 2.91699 20.0985 2.91699 18.7291 2.91699C17.3598 2.91699 16.6743 2.91699 16.1348 3.13866C15.4165 3.43355 14.8447 4.00165 14.5452 4.71803C14.4081 5.04324 14.3556 5.42387 14.3337 5.97658C14.324 6.37704 14.2123 6.7684 14.0092 7.11367C13.806 7.45893 13.5182 7.74668 13.1729 7.9497C12.8211 8.14527 12.4256 8.24887 12.023 8.25091C11.6205 8.25295 11.224 8.15336 10.8702 7.96137C10.3773 7.70178 10.02 7.55887 9.66706 7.5122C8.89495 7.41082 8.11404 7.61837 7.49414 8.0897C7.03039 8.44262 6.68768 9.03178 6.00372 10.2087C5.31831 11.3855 4.97706 11.9732 4.89976 12.5493C4.79768 13.3164 5.00768 14.0922 5.4831 14.7062C5.69893 14.9862 6.00372 15.221 6.47476 15.5155C7.17039 15.9487 7.61664 16.6866 7.61664 17.5003C7.61664 18.3141 7.17039 19.052 6.47622 19.4837C6.00372 19.7797 5.69893 20.0145 5.48164 20.2945C5.24697 20.5977 5.07472 20.9445 4.97484 21.3147C4.87497 21.6849 4.84945 22.0712 4.89976 22.4514C4.97706 23.0259 5.31831 23.6151 6.00372 24.792C6.68914 25.9689 7.03039 26.5566 7.49414 26.9109C8.11247 27.382 8.89414 27.5891 9.66706 27.4885C10.02 27.4418 10.3773 27.2989 10.8702 27.0393C11.2242 26.847 11.621 26.7473 12.0238 26.7493C12.4266 26.7514 12.8223 26.8551 13.1743 27.0509C13.8831 27.4593 14.3031 28.2103 14.3337 29.0241C14.3556 29.5782 14.4081 29.9574 14.5452 30.2826C14.8427 30.9972 15.4143 31.5659 16.1348 31.862C16.6743 32.0837 17.3598 32.0837 18.7291 32.0837C20.0985 32.0837 20.7839 32.0837 21.3235 31.862C22.0418 31.5671 22.6136 30.999 22.9131 30.2826C23.0502 29.9574 23.1027 29.5782 23.1246 29.0241C23.1537 28.2103 23.5752 27.4578 24.2854 27.0509C24.6372 26.8554 25.0327 26.7518 25.4352 26.7497C25.8378 26.7477 26.2343 26.8473 26.5881 27.0393C27.081 27.2989 27.4383 27.4418 27.7912 27.4885C28.5641 27.5905 29.3458 27.382 29.9641 26.9109C30.4279 26.558 30.7706 25.9689 31.4546 24.792C32.14 23.6151 32.4812 23.0274 32.5585 22.4514C32.6086 22.0711 32.5829 21.6848 32.4827 21.3145C32.3826 20.9443 32.2101 20.5976 31.9752 20.2945C31.7593 20.0145 31.4546 19.7797 30.9835 19.4851C30.2879 19.052 29.8416 18.3141 29.8416 17.5003C29.8416 16.6866 30.2879 15.9487 30.9821 15.517C31.4546 15.221 31.7593 14.9862 31.9766 14.7062C32.2113 14.4029 32.3836 14.0562 32.4834 13.686C32.5833 13.3157 32.6088 12.9294 32.5585 12.5493C32.4812 11.9747 32.14 11.3855 31.4546 10.2087C30.7691 9.03178 30.4279 8.44408 29.9641 8.0897C29.3442 7.61837 28.5633 7.41082 27.7912 7.5122C27.4383 7.55887 27.081 7.70178 26.5881 7.96137C26.2341 8.15362 25.8373 8.25335 25.4345 8.25131C25.0317 8.24927 24.6359 8.14553 24.2839 7.9497C23.9389 7.7465 23.6513 7.45867 23.4485 7.11342C23.2456 6.76817 23.1341 6.3769 23.1246 5.97658C23.1027 5.42241 23.0502 5.04324 22.9131 4.71803C22.7649 4.36327 22.5482 4.0412 22.2754 3.7702C22.0027 3.49921 21.6792 3.28461 21.3235 3.13866ZM18.7291 21.8753C21.1646 21.8753 23.1377 19.9168 23.1377 17.5003C23.1377 15.0839 21.1631 13.1253 18.7291 13.1253C16.2937 13.1253 14.3206 15.0839 14.3206 17.5003C14.3206 19.9168 16.2952 21.8753 18.7291 21.8753Z" fill="white"/>
</g>
</svg>
