<svg width="36" height="35" viewBox="0 0 36 35" fill="none" xmlns="http://www.w3.org/2000/svg">
<g id="mdi:city">
<path id="Vector" d="M28.6082 21.8753H25.6916V18.9587H28.6082M28.6082 27.7087H25.6916V24.792H28.6082M19.8582 10.2087H16.9416V7.29199H19.8582M19.8582 16.042H16.9416V13.1253H19.8582M19.8582 21.8753H16.9416V18.9587H19.8582M19.8582 27.7087H16.9416V24.792H19.8582M11.1082 16.042H8.19157V13.1253H11.1082M11.1082 21.8753H8.19157V18.9587H11.1082M11.1082 27.7087H8.19157V24.792H11.1082M22.7749 16.042V7.29199L18.3999 2.91699L14.0249 7.29199V10.2087H5.2749V30.6253H31.5249V16.042H22.7749Z" fill="white"/>
</g>
</svg>
