<svg width="31" height="31" viewBox="0 0 31 31" fill="none" xmlns="http://www.w3.org/2000/svg">
<path id="Soft Star" d="M15.0864 0.367445C15.1445 -0.122482 15.8555 -0.122482 15.9136 0.367445L16.4013 4.47749C17.031 9.78467 21.2153 13.969 26.5225 14.5987L30.6325 15.0864C31.1225 15.1445 31.1225 15.8555 30.6325 15.9136L26.5225 16.4013C21.2153 17.031 17.031 21.2153 16.4013 26.5225L15.9136 30.6325C15.8555 31.1225 15.1445 31.1225 15.0864 30.6325L14.5987 26.5225C13.969 21.2153 9.78467 17.031 4.47749 16.4013L0.367445 15.9136C-0.122482 15.8555 -0.122482 15.1445 0.367445 15.0864L4.47749 14.5987C9.78467 13.969 13.969 9.78467 14.5987 4.47749L15.0864 0.367445Z" fill="url(#paint0_linear_1014_182651)"/>
<defs>
<linearGradient id="paint0_linear_1014_182651" x1="0" y1="15.5" x2="31" y2="15.5" gradientUnits="userSpaceOnUse">
<stop stop-color="#FF5858"/>
<stop offset="1" stop-color="#F09819"/>
</linearGradient>
</defs>
</svg>
