<svg width="118" height="161" viewBox="0 0 118 161" fill="none" xmlns="http://www.w3.org/2000/svg">
<rect x="-155.871" y="136.785" width="306.947" height="28.6949" transform="rotate(-33 -155.871 136.785)" fill="url(#paint0_linear_1014_182648)"/>
<path d="M19.0107 37.9105C18.5651 37.944 18.1319 38.0138 17.7112 38.1201C17.2984 38.2213 16.9433 38.3684 16.6458 38.5616C16.2779 38.8005 16.0366 39.063 15.9218 39.3489C15.8071 39.6349 15.8463 39.9266 16.0394 40.2241C16.1716 40.4276 16.3693 40.5607 16.6326 40.6234C16.8987 40.6732 17.1976 40.6794 17.5294 40.642C17.8691 40.5995 18.2089 40.5401 18.549 40.464C18.8604 40.3952 19.1807 40.3486 19.5098 40.3241C19.8416 40.2867 20.1689 40.3023 20.4917 40.3709C20.8094 40.4317 21.121 40.5687 21.4264 40.7821C21.7269 40.9876 22.0118 41.2979 22.2812 41.7127C22.5659 42.1511 22.7167 42.6318 22.7337 43.1549C22.7507 43.6781 22.6163 44.1994 22.3304 44.7189C22.0395 45.2306 21.5731 45.6948 20.9312 46.1116C20.6025 46.3251 20.2455 46.5124 19.8605 46.6734C19.4781 46.8216 19.0794 46.9359 18.6642 47.0163C18.2439 47.0889 17.8125 47.1186 17.37 47.1056L17.2599 45.2908C17.56 45.3073 17.8655 45.2981 18.1766 45.263C18.4904 45.215 18.789 45.1435 19.0723 45.0486C19.3557 44.9536 19.5991 44.84 19.8026 44.7079C20.0061 44.5757 20.1918 44.4161 20.3598 44.2292C20.5304 44.0293 20.6366 43.8157 20.6781 43.5884C20.7275 43.356 20.6709 43.1146 20.5082 42.8641C20.3964 42.6919 20.236 42.5734 20.0271 42.5088C19.826 42.4391 19.5895 42.409 19.3176 42.4187C19.0535 42.4233 18.78 42.4562 18.497 42.5176C18.1648 42.5886 17.8146 42.6491 17.4464 42.6991C17.0782 42.749 16.7078 42.7614 16.3354 42.7362C15.9656 42.698 15.611 42.5889 15.2714 42.4088C14.9346 42.2158 14.6315 41.9118 14.3621 41.497C14.0368 40.996 13.8642 40.4904 13.8445 39.9802C13.8326 39.4648 13.9615 38.9694 14.2313 38.4937C14.496 38.0102 14.8869 37.5838 15.4039 37.2147C16.1005 36.7623 16.7175 36.4785 17.2548 36.3633C17.7999 36.243 18.3183 36.1845 18.8102 36.1879L19.0107 37.9105ZM24.9488 38.8285C25.1267 39.1025 25.3792 39.3113 25.7063 39.4551C26.0333 39.5988 26.3807 39.6625 26.7485 39.6462C27.1242 39.6249 27.4724 39.51 27.7934 39.3016C28.1456 39.0728 28.4079 38.7912 28.5802 38.4568C28.7525 38.1223 28.8356 37.779 28.8295 37.4268C28.8312 37.0696 28.7431 36.754 28.5652 36.48L25.0272 31.032L26.7062 29.9417L30.2671 35.4249C30.6788 36.0589 30.8883 36.7242 30.8954 37.4206C30.8975 38.1093 30.7238 38.7673 30.3746 39.3948C30.0202 40.0144 29.5182 40.5352 28.8685 40.9571C28.2266 41.3739 27.5506 41.6182 26.8404 41.6899C26.133 41.7487 25.4651 41.6371 24.8368 41.3551C24.2035 41.0653 23.6809 40.6034 23.2692 39.9694L19.7083 34.4861L21.4108 33.3805L24.9488 38.8285ZM31.3776 26.908C32.0899 26.4454 32.7715 26.1753 33.4222 26.0977C34.0678 26.0123 34.6621 26.1049 35.2051 26.3755C35.743 26.6383 36.2051 27.0671 36.5914 27.662C36.8202 28.0142 36.9967 28.406 37.1209 28.8372C37.2479 29.2555 37.288 29.6858 37.2413 30.1279C37.2024 30.5649 37.0457 31.0005 36.7712 31.4347C36.4995 31.856 36.0818 32.2497 35.5183 32.6157L34.2971 33.4087L36.0738 36.1444L34.3713 37.25L28.7593 28.6084L31.3776 26.908ZM34.4314 30.9678C34.6897 30.8 34.877 30.6172 34.9933 30.4192C35.1045 30.2135 35.1639 30.0136 35.1714 29.8195C35.1816 29.6125 35.158 29.4219 35.1006 29.2478C35.051 29.0686 34.9906 28.9242 34.9194 28.8146C34.8635 28.7285 34.7741 28.6252 34.6513 28.5046C34.5313 28.3711 34.3799 28.258 34.1972 28.1652C34.0145 28.0724 33.8001 28.0335 33.554 28.0487C33.3157 28.0588 33.0478 28.1604 32.7504 28.3535L31.5293 29.1465L33.222 31.7531L34.4314 30.9678ZM36.2238 23.7609L42.118 19.9331L43.1855 21.5769L38.9938 24.299L40.1909 26.1424L43.9012 23.733L44.9687 25.3767L41.2584 27.7862L42.4708 29.6531L46.8268 26.8243L47.8943 28.4681L41.8358 32.4025L36.2238 23.7609ZM46.6621 16.9822C47.2022 16.6314 47.7293 16.3892 48.2435 16.2556C48.7526 16.1142 49.2319 16.0812 49.6815 16.1565C50.1338 16.2189 50.5512 16.3818 50.9337 16.6453C51.3112 16.901 51.6448 17.2519 51.9346 17.698C52.1633 18.0503 52.3373 18.4381 52.4564 18.8615C52.5834 19.2798 52.6196 19.7126 52.5651 20.1598C52.5183 20.6019 52.3577 21.0401 52.0833 21.4743C51.8037 21.9007 51.3743 22.3019 50.7951 22.6781L49.574 23.4711L51.3582 26.2186L49.6557 27.3242L44.0437 18.6825L46.6621 16.9822ZM49.7158 21.0419C49.9741 20.8742 50.1614 20.6913 50.2777 20.4934C50.394 20.2955 50.4559 20.0995 50.4634 19.9054C50.4788 19.7062 50.4603 19.5235 50.4079 19.3572C50.3583 19.178 50.2928 19.0257 50.2115 18.9005C50.1505 18.8066 50.0586 18.6993 49.9358 18.5788C49.8157 18.4453 49.6643 18.3321 49.4817 18.2393C49.299 18.1465 49.0846 18.1077 48.8384 18.1229C48.6002 18.1329 48.3323 18.2345 48.0348 18.4277L46.8137 19.2207L48.5065 21.8273L49.7158 21.0419ZM51.9989 21.0617L56.3013 23.0085L54.317 24.2971L49.9982 22.4277L51.9989 21.0617Z" fill="white"/>
<defs>
<linearGradient id="paint0_linear_1014_182648" x1="-155.871" y1="151.133" x2="151.076" y2="151.133" gradientUnits="userSpaceOnUse">
<stop stop-color="#FF5858"/>
<stop offset="1" stop-color="#F09819"/>
</linearGradient>
</defs>
</svg>
