<svg width="47" height="60" viewBox="0 0 47 60" fill="none" xmlns="http://www.w3.org/2000/svg">
<rect x="-61.5986" y="54.0562" width="121.302" height="11.3399" transform="rotate(-33 -61.5986 54.0562)" fill="url(#paint0_linear_1341_132795)"/>
<path d="M7.80741 14.121C7.58458 14.1377 7.36799 14.1726 7.15766 14.2258C6.95124 14.2764 6.77367 14.3499 6.62495 14.4465C6.441 14.566 6.32033 14.6972 6.26295 14.8402C6.20557 14.9832 6.22517 15.129 6.32175 15.2778C6.38784 15.3795 6.4867 15.4461 6.61835 15.4774C6.75138 15.5023 6.90084 15.5054 7.06675 15.4867C7.23657 15.4655 7.40649 15.4358 7.57652 15.3977C7.73226 15.3633 7.8924 15.34 8.05693 15.3278C8.22284 15.3091 8.38649 15.3169 8.54788 15.3512C8.70672 15.3816 8.86252 15.4501 9.01526 15.5568C9.16547 15.6595 9.30793 15.8146 9.44263 16.0221C9.58497 16.2413 9.66038 16.4816 9.66888 16.7432C9.67738 17.0048 9.61017 17.2654 9.46725 17.5252C9.32178 17.781 9.08858 18.0131 8.76765 18.2215C8.60327 18.3283 8.42481 18.4219 8.23227 18.5024C8.0411 18.5765 7.84173 18.6337 7.63414 18.6739C7.42401 18.7102 7.20831 18.725 6.98705 18.7185L6.93197 17.8111C7.08202 17.8194 7.23481 17.8148 7.39035 17.7972C7.54726 17.7732 7.69655 17.7375 7.83821 17.69C7.97987 17.6425 8.10158 17.5857 8.20334 17.5197C8.30509 17.4536 8.39796 17.3738 8.48193 17.2803C8.56726 17.1804 8.62033 17.0736 8.64111 16.9599C8.66581 16.8437 8.63749 16.723 8.55616 16.5978C8.50024 16.5117 8.42006 16.4524 8.3156 16.4201C8.21506 16.3853 8.0968 16.3702 7.96083 16.3751C7.82878 16.3774 7.69202 16.3938 7.55056 16.4245C7.38445 16.46 7.20934 16.4903 7.02524 16.5153C6.84113 16.5402 6.65596 16.5464 6.46972 16.5338C6.28485 16.5147 6.10753 16.4602 5.93775 16.3701C5.76935 16.2736 5.61779 16.1216 5.48309 15.9142C5.32042 15.6637 5.23415 15.4109 5.22428 15.1558C5.21832 14.8981 5.28279 14.6504 5.41769 14.4126C5.55004 14.1708 5.74547 13.9576 6.00398 13.7731C6.35231 13.5469 6.66079 13.405 6.92942 13.3474C7.20197 13.2872 7.4612 13.258 7.70712 13.2597L7.80741 14.121ZM10.7764 14.58C10.8654 14.717 10.9916 14.8214 11.1552 14.8933C11.3187 14.9651 11.4924 14.997 11.6763 14.9888C11.8641 14.9782 12.0383 14.9207 12.1987 14.8165C12.3748 14.7021 12.506 14.5613 12.5921 14.3941C12.6783 14.2269 12.7198 14.0552 12.7168 13.8791C12.7176 13.7005 12.6736 13.5427 12.5846 13.4057L10.8156 10.6817L11.6551 10.1366L13.4356 12.8782C13.6414 13.1952 13.7462 13.5278 13.7497 13.876C13.7508 14.2204 13.664 14.5494 13.4893 14.8631C13.3121 15.1729 13.0611 15.4333 12.7363 15.6443C12.4154 15.8527 12.0773 15.9748 11.7222 16.0107C11.3685 16.0401 11.0346 15.9843 10.7205 15.8433C10.4038 15.6984 10.1425 15.4674 9.93664 15.1504L8.15621 12.4088L9.00746 11.856L10.7764 14.58ZM13.9909 8.61972C14.347 8.38843 14.6878 8.25339 15.0131 8.2146C15.3359 8.17189 15.6331 8.21818 15.9046 8.35348C16.1735 8.48486 16.4046 8.69928 16.5978 8.99673C16.7121 9.17285 16.8004 9.36872 16.8625 9.58433C16.926 9.7935 16.9461 10.0086 16.9227 10.2297C16.9032 10.4482 16.8249 10.666 16.6876 10.8831C16.5518 11.0937 16.343 11.2906 16.0612 11.4736L15.4506 11.8701L16.3389 13.2379L15.4877 13.7907L12.6817 9.46991L13.9909 8.61972ZM15.5177 10.6496C15.6469 10.5657 15.7405 10.4743 15.7987 10.3753C15.8543 10.2725 15.884 10.1725 15.8877 10.0755C15.8929 9.97198 15.8811 9.8767 15.8523 9.78963C15.8275 9.70001 15.7973 9.62781 15.7618 9.57302C15.7338 9.52997 15.6891 9.4783 15.6277 9.41802C15.5677 9.35128 15.492 9.29471 15.4006 9.24831C15.3093 9.2019 15.2021 9.18249 15.079 9.19007C14.9599 9.19511 14.826 9.24591 14.6772 9.3425L14.0667 9.73899L14.9131 11.0423L15.5177 10.6496ZM16.4139 7.04616L19.361 5.13229L19.8948 5.95419L17.7989 7.31524L18.3975 8.23694L20.2526 7.0322L20.7864 7.8541L18.9312 9.05884L19.5374 9.99228L21.7154 8.57785L22.2492 9.39975L19.2199 11.367L16.4139 7.04616ZM21.6331 3.65681C21.9031 3.48143 22.1667 3.36035 22.4238 3.29355C22.6783 3.22283 22.918 3.2063 23.1428 3.24396C23.3689 3.27516 23.5776 3.35663 23.7689 3.48837C23.9577 3.6162 24.1245 3.79166 24.2693 4.01475C24.3837 4.19087 24.4707 4.38478 24.5303 4.59648C24.5938 4.80565 24.6119 5.02203 24.5846 5.24563C24.5612 5.46669 24.4809 5.68577 24.3437 5.90287C24.2039 6.11606 23.9892 6.31669 23.6996 6.50477L23.089 6.90127L23.9811 8.27501L23.1299 8.82782L20.3239 4.50699L21.6331 3.65681ZM23.16 5.68669C23.2891 5.60281 23.3828 5.51139 23.4409 5.41242C23.4991 5.31346 23.53 5.21545 23.5338 5.11842C23.5414 5.01884 23.5322 4.92748 23.506 4.84432C23.4812 4.75471 23.4485 4.67859 23.4078 4.61597C23.3773 4.56901 23.3313 4.51538 23.2699 4.4551C23.2099 4.38836 23.1342 4.33179 23.0429 4.28539C22.9515 4.23899 22.8443 4.21957 22.7213 4.22715C22.6021 4.23219 22.4682 4.283 22.3195 4.37958L21.7089 4.77608L22.5553 6.07937L23.16 5.68669ZM24.3015 5.69655L26.4527 6.66996L25.4606 7.31427L23.3011 6.37959L24.3015 5.69655Z" fill="white"/>
<defs>
<linearGradient id="paint0_linear_1341_132795" x1="-61.5986" y1="59.7261" x2="59.7035" y2="59.7261" gradientUnits="userSpaceOnUse">
<stop stop-color="#FF5858"/>
<stop offset="1" stop-color="#F09819"/>
</linearGradient>
</defs>
</svg>
