<svg width="24" height="24" viewBox="0 0 24 24" fill="none" xmlns="http://www.w3.org/2000/svg">
<g id="material-symbols:done-rounded">
<path id="Vector" d="M9.54963 17.5754C9.4163 17.5754 9.2913 17.5544 9.17463 17.5124C9.05797 17.4711 8.94963 17.4004 8.84963 17.3004L4.54963 13.0004C4.3663 12.8171 4.27863 12.5794 4.28663 12.2874C4.2953 11.9961 4.3913 11.7587 4.57463 11.5754C4.75797 11.3921 4.9913 11.3004 5.27463 11.3004C5.55797 11.3004 5.7913 11.3921 5.97463 11.5754L9.54963 15.1504L18.0246 6.67539C18.208 6.49206 18.4456 6.40039 18.7376 6.40039C19.029 6.40039 19.2663 6.49206 19.4496 6.67539C19.633 6.85872 19.7246 7.09606 19.7246 7.38739C19.7246 7.67939 19.633 7.91706 19.4496 8.10039L10.2496 17.3004C10.1496 17.4004 10.0413 17.4711 9.92463 17.5124C9.80797 17.5544 9.68297 17.5754 9.54963 17.5754Z" fill="#F24949"/>
</g>
</svg>
