<svg width="26" height="24" viewBox="0 0 26 24" fill="none" xmlns="http://www.w3.org/2000/svg">
<path d="M4.89233 21.7506C1.69542 21.0898 0 18.4032 0 15.7923C0 12.9594 1.87525 10.1611 5.72325 9.83398C4.19033 11.5576 3.25 13.851 3.25 16.334C3.25 18.2645 3.9195 20.234 4.89233 21.7506ZM26 15.7923C26 18.4021 24.3208 21.0887 21.125 21.7506C22.0968 20.234 22.75 18.2645 22.75 16.334C22.75 13.851 21.8097 11.5576 20.2768 9.83398C24.1248 10.1622 26 12.9605 26 15.7923ZM20.5032 7.6814C21.5237 7.7724 22.4337 7.9999 23.2429 8.33248C21.8671 3.57882 18.1881 0.0839844 13 0.0839844C7.81517 0.0839844 4.14592 3.57773 2.77117 8.3249C3.57717 7.99665 4.485 7.77023 5.50117 7.68032C6.96042 4.93082 9.66333 3.30365 13 3.31015C16.3378 3.30365 19.0428 4.93082 20.5032 7.6814ZM20.5833 16.334C20.5833 20.5222 17.1871 23.9173 13 23.9173C8.81292 23.9173 5.41667 20.5222 5.41667 16.334C5.41667 12.1458 8.81292 8.75065 13 8.75065C17.1871 8.75065 20.5833 12.1458 20.5833 16.334ZM11.9167 13.084H9.75V19.584H11.9167V13.084ZM16.25 13.084H14.0833V19.584H16.25V13.084Z" fill="white"/>
</svg>
