<svg width="36" height="35" viewBox="0 0 36 35" fill="none" xmlns="http://www.w3.org/2000/svg">
<path d="M23.4 20C25.1239 20 26.7772 20.6585 27.9962 21.8306C29.2152 23.0027 29.9 24.5924 29.9 26.25V27.5C29.9 28.163 29.6261 28.7989 29.1385 29.2678C28.6509 29.7366 27.9896 30 27.3 30H9.1C8.41044 30 7.74912 29.7366 7.26152 29.2678C6.77393 28.7989 6.5 28.163 6.5 27.5V26.25C6.5 24.5924 7.18482 23.0027 8.40381 21.8306C9.62279 20.6585 11.2761 20 13 20H23.4ZM28.6 12.5C28.9448 12.5 29.2754 12.6317 29.5192 12.8661C29.763 13.1005 29.9 13.4185 29.9 13.75V15H31.2C31.5448 15 31.8754 15.1317 32.1192 15.3661C32.363 15.6005 32.5 15.9185 32.5 16.25C32.5 16.5815 32.363 16.8995 32.1192 17.1339C31.8754 17.3683 31.5448 17.5 31.2 17.5H29.9V18.75C29.9 19.0815 29.763 19.3995 29.5192 19.6339C29.2754 19.8683 28.9448 20 28.6 20C28.2552 20 27.9246 19.8683 27.6808 19.6339C27.437 19.3995 27.3 19.0815 27.3 18.75V17.5H26C25.6552 17.5 25.3246 17.3683 25.0808 17.1339C24.837 16.8995 24.7 16.5815 24.7 16.25C24.7 15.9185 24.837 15.6005 25.0808 15.3661C25.3246 15.1317 25.6552 15 26 15H27.3V13.75C27.3 13.4185 27.437 13.1005 27.6808 12.8661C27.9246 12.6317 28.2552 12.5 28.6 12.5ZM18.2 5C19.9239 5 21.5772 5.65848 22.7962 6.83058C24.0152 8.00269 24.7 9.5924 24.7 11.25C24.7 12.9076 24.0152 14.4973 22.7962 15.6694C21.5772 16.8415 19.9239 17.5 18.2 17.5C16.4761 17.5 14.8228 16.8415 13.6038 15.6694C12.3848 14.4973 11.7 12.9076 11.7 11.25C11.7 9.5924 12.3848 8.00269 13.6038 6.83058C14.8228 5.65848 16.4761 5 18.2 5Z" fill="white"/>
</svg>
