<svg width="116" height="158" viewBox="0 0 116 158" fill="none" xmlns="http://www.w3.org/2000/svg">
<rect x="-157.871" y="133.785" width="306.947" height="28.6949" transform="rotate(-33 -157.871 133.785)" fill="#52A436"/>
<path d="M8.34243 37.8868L14.9081 42.4704L13.7922 42.9113L12.1701 35.4011L14.1896 34.0896L16.1157 45.6924L6.29943 39.2135L8.34243 37.8868ZM15.6847 33.1187L21.5788 29.291L22.6463 30.9348L18.4546 33.6569L19.6518 35.5003L23.362 33.0908L24.4295 34.7346L20.7193 37.1441L21.9316 39.011L26.2877 36.1821L27.3552 37.8259L21.2966 41.7604L15.6847 33.1187ZM26.1229 26.34C26.663 25.9893 27.1902 25.7471 27.7044 25.6135C28.2135 25.4721 28.6928 25.439 29.1423 25.5143C29.5946 25.5767 30.0121 25.7397 30.3946 26.0031C30.7721 26.2588 31.1057 26.6097 31.3954 27.0559C31.6242 27.4081 31.7981 27.796 31.9173 28.2194C32.0443 28.6377 32.0805 29.0705 32.0259 29.5177C31.9792 29.9598 31.8186 30.3979 31.5441 30.8321C31.2646 31.2585 30.8352 31.6598 30.2559 32.0359L29.0348 32.8289L30.8191 35.5764L29.1166 36.682L23.5046 28.0404L26.1229 26.34ZM29.1767 30.3998C29.435 30.232 29.6223 30.0492 29.7386 29.8512C29.8549 29.6533 29.9168 29.4573 29.9243 29.2632C29.9396 29.0641 29.9211 28.8814 29.8688 28.715C29.8192 28.5358 29.7537 28.3836 29.6724 28.2583C29.6114 28.1644 29.5194 28.0572 29.3966 27.9366C29.2766 27.8031 29.1252 27.69 28.9425 27.5972C28.7598 27.5044 28.5454 27.4655 28.2993 27.4807C28.061 27.4908 27.7931 27.5924 27.4957 27.7856L26.2746 28.5786L27.9673 31.1851L29.1767 30.3998ZM31.4598 30.4195L35.7622 32.3663L33.7779 33.6549L29.459 31.7856L31.4598 30.4195ZM31.5539 22.8131L33.2564 21.7075L38.8683 30.3492L37.1658 31.4548L31.5539 22.8131ZM35.4868 20.2591L40.8878 16.7516L41.9553 18.3954L38.2568 20.7972L39.5301 22.758L42.7355 20.6764L43.803 22.3202L40.5976 24.4018L42.8012 27.7951L41.0987 28.9007L35.4868 20.2591ZM42.527 15.6871L44.2295 14.5814L49.8415 23.2231L48.139 24.3287L42.527 15.6871ZM46.4599 13.133L52.3541 9.30528L53.4216 10.9491L49.2299 13.6712L50.427 15.5146L54.1373 13.1051L55.2048 14.7489L51.4945 17.1584L52.7069 19.0253L57.063 16.1964L58.1304 17.8402L52.0719 21.7747L46.4599 13.133ZM59.8918 16.6963L54.2799 8.05467L56.863 6.37719C57.7318 5.81294 58.5554 5.46172 59.3337 5.32354C60.112 5.18535 60.8249 5.21206 61.4724 5.40366C62.1277 5.59018 62.7143 5.89366 63.2322 6.31411C63.75 6.73455 64.1843 7.21482 64.5351 7.75493C64.9519 8.39679 65.2107 9.05228 65.3113 9.7214C65.4148 10.3776 65.3863 11.0193 65.226 11.6464C65.0607 12.2657 64.7793 12.8435 64.3819 13.3798C63.9795 13.9083 63.4847 14.3631 62.8976 14.7443L59.8918 16.6963ZM60.5268 13.9469L61.5366 13.2912C61.9671 13.0116 62.3229 12.7026 62.604 12.3643C62.88 12.0181 63.0721 11.6541 63.1802 11.2723C63.2962 10.8854 63.314 10.4843 63.2335 10.0692C63.1559 9.64107 62.9772 9.21177 62.6976 8.78125C62.3316 8.21767 61.9403 7.82075 61.5237 7.59051C61.1099 7.34736 60.7024 7.21689 60.3014 7.19912C59.9081 7.17626 59.5477 7.22111 59.2202 7.33366C58.8876 7.43838 58.6234 7.55428 58.4277 7.68137L57.0422 8.58111L60.5268 13.9469Z" fill="white"/>
</svg>
