<svg width="52" height="18" viewBox="0 0 52 18" fill="none" xmlns="http://www.w3.org/2000/svg">
<rect opacity="0.9" y="11" width="52" height="6" fill="#693DAF"/>
<path d="M13.52 16V12.385H14.505C14.8617 12.385 15.165 12.44 15.415 12.55C15.6683 12.66 15.8717 12.805 16.025 12.985C16.1783 13.165 16.29 13.365 16.36 13.585C16.4333 13.8017 16.47 14.0183 16.47 14.235C16.47 14.5083 16.4217 14.7533 16.325 14.97C16.2317 15.1867 16.1017 15.3717 15.935 15.525C15.7683 15.6783 15.5767 15.7967 15.36 15.88C15.1467 15.96 14.92 16 14.68 16H13.52ZM14.005 15.535H14.585C14.785 15.535 14.9683 15.505 15.135 15.445C15.305 15.385 15.4517 15.2983 15.575 15.185C15.7017 15.0717 15.8 14.9333 15.87 14.77C15.94 14.6033 15.975 14.415 15.975 14.205C15.975 13.9817 15.9383 13.7867 15.865 13.62C15.7917 13.45 15.6917 13.3083 15.565 13.195C15.4383 13.0817 15.295 12.9967 15.135 12.94C14.975 12.88 14.8067 12.85 14.63 12.85H14.005V15.535ZM17.2846 12.385H17.7696V16H17.2846V12.385ZM18.4481 16L20.0281 12.235H20.0581L21.6331 16H21.0781L19.8981 12.995L20.2431 12.77L18.9231 16H18.4481ZM19.3731 14.63H20.7181L20.8781 15.05H19.2331L19.3731 14.63ZM22.3139 16V12.27H22.3189L24.2139 14.96L24.0089 14.92L25.8989 12.27H25.9089V16H25.4289V13.37L25.4589 13.615L24.0939 15.545H24.0839L22.6989 13.615L22.7839 13.39V16H22.3139ZM26.7227 14.195C26.7227 13.945 26.7694 13.71 26.8627 13.49C26.9594 13.2667 27.0927 13.07 27.2627 12.9C27.4327 12.7267 27.6277 12.5917 27.8477 12.495C28.0711 12.395 28.3111 12.345 28.5677 12.345C28.8211 12.345 29.0577 12.395 29.2777 12.495C29.5011 12.5917 29.6977 12.7267 29.8677 12.9C30.0411 13.07 30.1761 13.2667 30.2727 13.49C30.3694 13.71 30.4177 13.945 30.4177 14.195C30.4177 14.4517 30.3694 14.6917 30.2727 14.915C30.1761 15.1383 30.0411 15.335 29.8677 15.505C29.6977 15.6717 29.5011 15.8033 29.2777 15.9C29.0577 15.9933 28.8211 16.04 28.5677 16.04C28.3111 16.04 28.0711 15.9933 27.8477 15.9C27.6277 15.8067 27.4327 15.6767 27.2627 15.51C27.0927 15.3433 26.9594 15.1483 26.8627 14.925C26.7694 14.7017 26.7227 14.4583 26.7227 14.195ZM27.2227 14.2C27.2227 14.39 27.2577 14.5683 27.3277 14.735C27.3977 14.8983 27.4944 15.0433 27.6177 15.17C27.7411 15.2967 27.8844 15.3967 28.0477 15.47C28.2111 15.54 28.3877 15.575 28.5777 15.575C28.7644 15.575 28.9394 15.54 29.1027 15.47C29.2661 15.3967 29.4077 15.2967 29.5277 15.17C29.6477 15.0433 29.7427 14.8983 29.8127 14.735C29.8827 14.5683 29.9177 14.3883 29.9177 14.195C29.9177 14.005 29.8827 13.8267 29.8127 13.66C29.7427 13.49 29.6461 13.3417 29.5227 13.215C29.3994 13.0883 29.2561 12.99 29.0927 12.92C28.9294 12.8467 28.7544 12.81 28.5677 12.81C28.3777 12.81 28.2011 12.8467 28.0377 12.92C27.8744 12.9933 27.7311 13.0933 27.6077 13.22C27.4844 13.3467 27.3894 13.495 27.3227 13.665C27.2561 13.8317 27.2227 14.01 27.2227 14.2ZM34.3648 16.115L31.5698 13.28L31.7098 13.315L31.7198 16H31.2348V12.275H31.2598L34.0248 15.12L33.9098 15.095L33.8998 12.385H34.3798V16.115H34.3648ZM35.4194 16V12.385H36.4044C36.7611 12.385 37.0644 12.44 37.3144 12.55C37.5677 12.66 37.7711 12.805 37.9244 12.985C38.0777 13.165 38.1894 13.365 38.2594 13.585C38.3327 13.8017 38.3694 14.0183 38.3694 14.235C38.3694 14.5083 38.3211 14.7533 38.2244 14.97C38.1311 15.1867 38.0011 15.3717 37.8344 15.525C37.6677 15.6783 37.4761 15.7967 37.2594 15.88C37.0461 15.96 36.8194 16 36.5794 16H35.4194ZM35.9044 15.535H36.4844C36.6844 15.535 36.8677 15.505 37.0344 15.445C37.2044 15.385 37.3511 15.2983 37.4744 15.185C37.6011 15.0717 37.6994 14.9333 37.7694 14.77C37.8394 14.6033 37.8744 14.415 37.8744 14.205C37.8744 13.9817 37.8377 13.7867 37.7644 13.62C37.6911 13.45 37.5911 13.3083 37.4644 13.195C37.3377 13.0817 37.1944 12.9967 37.0344 12.94C36.8744 12.88 36.7061 12.85 36.5294 12.85H35.9044V15.535Z" fill="white"/>
<rect opacity="0.9" y="3" width="52" height="6" fill="#52A436"/>
<path d="M14.28 4.385L15.47 7.375L15.195 7.32L16.325 4.385H16.89L15.295 8.165L13.705 4.385H14.28ZM17.6138 4.385H19.9638V4.85H18.0988V5.95H19.7638V6.415H18.0988V7.535H20.0337V8H17.6138V4.385ZM21.8355 4.385C22.0188 4.385 22.1871 4.41 22.3405 4.46C22.4971 4.50667 22.6321 4.57833 22.7455 4.675C22.8621 4.76833 22.9521 4.885 23.0155 5.025C23.0821 5.16167 23.1155 5.32167 23.1155 5.505C23.1155 5.64833 23.0938 5.78833 23.0505 5.925C23.0105 6.06167 22.9421 6.18667 22.8455 6.3C22.7488 6.41 22.6221 6.5 22.4655 6.57C22.3121 6.63667 22.1221 6.67 21.8955 6.67L21.3605 6.67V8H20.8755V4.385L21.8355 4.385ZM21.8855 6.205C22.0288 6.205 22.1471 6.18333 22.2405 6.14C22.3371 6.09667 22.4121 6.04167 22.4655 5.975C22.5188 5.905 22.5571 5.83 22.5805 5.75C22.6038 5.67 22.6155 5.595 22.6155 5.525C22.6155 5.45167 22.6021 5.37667 22.5755 5.3C22.5521 5.22 22.5121 5.14667 22.4555 5.08C22.4021 5.01333 22.3305 4.95833 22.2405 4.915C22.1538 4.87167 22.0471 4.85 21.9205 4.85L21.3605 4.85V6.205L21.8855 6.205ZM22.4805 6.48L23.4255 8H22.8655L21.9055 6.495L22.4805 6.48ZM24.1714 4.385H24.6564V8H24.1714V4.385ZM25.6948 4.385H27.8398V4.85H26.1798V6.005H27.6348V6.465H26.1798V8H25.6948V4.385ZM28.6391 4.385H29.1241V8H28.6391V4.385ZM30.1626 4.385H32.5126V4.85H30.6476V5.95H32.3126V6.415H30.6476V7.535H32.5826V8H30.1626V4.385ZM33.4243 8V4.385H34.4093C34.766 4.385 35.0693 4.44 35.3193 4.55C35.5726 4.66 35.776 4.805 35.9293 4.985C36.0826 5.165 36.1943 5.365 36.2643 5.585C36.3376 5.80167 36.3743 6.01833 36.3743 6.235C36.3743 6.50833 36.326 6.75333 36.2293 6.97C36.136 7.18667 36.006 7.37167 35.8393 7.525C35.6726 7.67833 35.481 7.79667 35.2643 7.88C35.051 7.96 34.8243 8 34.5843 8H33.4243ZM33.9093 7.535H34.4893C34.6893 7.535 34.8726 7.505 35.0393 7.445C35.2093 7.385 35.356 7.29833 35.4793 7.185C35.606 7.07167 35.7043 6.93333 35.7743 6.77C35.8443 6.60333 35.8793 6.415 35.8793 6.205C35.8793 5.98167 35.8426 5.78667 35.7693 5.62C35.696 5.45 35.596 5.30833 35.4693 5.195C35.3426 5.08167 35.1993 4.99667 35.0393 4.94C34.8793 4.88 34.711 4.85 34.5343 4.85H33.9093V7.535Z" fill="white"/>
</svg>
