<svg width="175" height="185" viewBox="0 0 175 185" fill="none" xmlns="http://www.w3.org/2000/svg">
<rect x="-157.871" y="133.785" width="306.947" height="28.6949" transform="rotate(-33 -157.871 133.785)" fill="#52A436"/>
<rect x="-140" y="160.176" width="356.766" height="28.6949" transform="rotate(-33 -140 160.176)" fill="#693DAF"/>
<path d="M8.34243 37.8868L14.9081 42.4704L13.7922 42.9113L12.1701 35.4011L14.1896 34.0896L16.1157 45.6924L6.29943 39.2135L8.34243 37.8868ZM15.6847 33.1187L21.5788 29.291L22.6463 30.9348L18.4546 33.6569L19.6518 35.5003L23.362 33.0908L24.4295 34.7346L20.7193 37.1441L21.9316 39.011L26.2877 36.1821L27.3552 37.8259L21.2966 41.7604L15.6847 33.1187ZM26.1229 26.34C26.663 25.9893 27.1902 25.7471 27.7044 25.6135C28.2135 25.4721 28.6928 25.439 29.1423 25.5143C29.5946 25.5767 30.0121 25.7397 30.3946 26.0031C30.7721 26.2588 31.1057 26.6097 31.3954 27.0559C31.6242 27.4081 31.7981 27.796 31.9173 28.2194C32.0443 28.6377 32.0805 29.0705 32.0259 29.5177C31.9792 29.9598 31.8186 30.3979 31.5441 30.8321C31.2646 31.2585 30.8352 31.6598 30.2559 32.0359L29.0348 32.8289L30.8191 35.5764L29.1166 36.682L23.5046 28.0404L26.1229 26.34ZM29.1767 30.3998C29.435 30.232 29.6223 30.0492 29.7386 29.8512C29.8549 29.6533 29.9168 29.4573 29.9243 29.2632C29.9396 29.0641 29.9211 28.8814 29.8688 28.715C29.8192 28.5358 29.7537 28.3836 29.6724 28.2583C29.6114 28.1644 29.5194 28.0572 29.3966 27.9366C29.2766 27.8031 29.1252 27.69 28.9425 27.5972C28.7598 27.5044 28.5454 27.4655 28.2993 27.4807C28.061 27.4908 27.7931 27.5924 27.4957 27.7856L26.2746 28.5786L27.9673 31.1851L29.1767 30.3998ZM31.4598 30.4195L35.7622 32.3663L33.7779 33.6549L29.459 31.7856L31.4598 30.4195ZM31.5539 22.8131L33.2564 21.7075L38.8683 30.3492L37.1658 31.4548L31.5539 22.8131ZM35.4868 20.2591L40.8878 16.7516L41.9553 18.3954L38.2568 20.7972L39.5301 22.758L42.7355 20.6764L43.803 22.3202L40.5976 24.4018L42.8012 27.7951L41.0987 28.9007L35.4868 20.2591ZM42.527 15.6871L44.2295 14.5814L49.8415 23.2231L48.139 24.3287L42.527 15.6871ZM46.4599 13.133L52.3541 9.30528L53.4216 10.9491L49.2299 13.6712L50.427 15.5146L54.1373 13.1051L55.2048 14.7489L51.4945 17.1584L52.7069 19.0253L57.063 16.1964L58.1304 17.8402L52.0719 21.7747L46.4599 13.133ZM59.8918 16.6963L54.2799 8.05467L56.863 6.37719C57.7318 5.81294 58.5554 5.46172 59.3337 5.32354C60.112 5.18535 60.8249 5.21206 61.4724 5.40366C62.1277 5.59018 62.7143 5.89366 63.2322 6.31411C63.75 6.73455 64.1843 7.21482 64.5351 7.75493C64.9519 8.39679 65.2107 9.05228 65.3113 9.7214C65.4148 10.3776 65.3863 11.0193 65.226 11.6464C65.0607 12.2657 64.7793 12.8435 64.3819 13.3798C63.9795 13.9083 63.4847 14.3631 62.8976 14.7443L59.8918 16.6963ZM60.5268 13.9469L61.5366 13.2912C61.9671 13.0116 62.3229 12.7026 62.604 12.3643C62.88 12.0181 63.0721 11.6541 63.1802 11.2723C63.2962 10.8854 63.314 10.4843 63.2335 10.0692C63.1559 9.64107 62.9772 9.21177 62.6976 8.78125C62.3316 8.21767 61.9403 7.82075 61.5237 7.59051C61.1099 7.34736 60.7024 7.21689 60.3014 7.19912C59.9081 7.17626 59.5477 7.22111 59.2202 7.33366C58.8876 7.43838 58.6234 7.55428 58.4277 7.68137L57.0422 8.58111L60.5268 13.9469Z" fill="white"/>
<path d="M33.6511 69.3748L28.0391 60.7332L30.6222 59.0557C31.4911 58.4914 32.3147 58.1402 33.093 58.002C33.8713 57.8638 34.5842 57.8906 35.2317 58.0822C35.887 58.2687 36.4736 58.5722 36.9914 58.9926C37.5093 59.413 37.9436 59.8933 38.2944 60.4334C38.7112 61.0753 38.9699 61.7308 39.0706 62.3999C39.174 63.0561 39.1456 63.6978 38.9853 64.3249C38.8199 64.9442 38.5385 65.522 38.1412 66.0583C37.7387 66.5868 37.244 67.0416 36.6569 67.4228L33.6511 69.3748ZM34.2861 66.6254L35.2959 65.9697C35.7264 65.6901 36.0822 65.3811 36.3633 65.0428C36.6393 64.6966 36.8313 64.3326 36.9395 63.9508C37.0555 63.5639 37.0732 63.1628 36.9928 62.7477C36.9151 62.3196 36.7365 61.8903 36.4569 61.4598C36.0909 60.8962 35.6996 60.4993 35.283 60.269C34.8691 60.0259 34.4617 59.8954 34.0606 59.8776C33.6674 59.8548 33.307 59.8996 32.9795 60.0122C32.6468 60.1169 32.3827 60.2328 32.187 60.3599L30.8015 61.2596L34.2861 66.6254ZM37.0974 54.8506L38.7999 53.745L44.4119 62.3867L42.7094 63.4923L37.0974 54.8506ZM45.6678 61.5711L43.7328 50.0575L43.8268 49.9965L53.558 56.4472L51.5854 57.7281L44.994 53.0278L45.6779 51.3818L47.3468 60.4807L45.6678 61.5711ZM46.3048 56.717L48.8997 55.0319L50.4287 56.0755L46.7067 58.4926L46.3048 56.717ZM54.8177 55.6291L48.977 46.6352L48.9887 46.6276L58.2134 50.319L57.3787 50.6273L57.8535 40.8707L57.877 40.8555L63.7177 49.8494L62.0152 50.955L58.6678 45.8005L59.3454 46.6125L59.121 52.6676L59.0975 52.6828L53.3925 50.4783L53.1599 49.4776L56.4615 54.5616L54.8177 55.6291ZM62.6247 44.4328C62.2383 43.8379 61.9858 43.2006 61.8672 42.5209C61.7485 41.8412 61.7566 41.1683 61.8915 40.502C62.0291 39.8228 62.2878 39.1929 62.6676 38.6124C63.0474 38.0319 63.5425 37.5435 64.1531 37.147C64.7558 36.7555 65.3996 36.5044 66.0843 36.3936C66.7691 36.2827 67.4497 36.3026 68.1262 36.4531C68.8054 36.5907 69.4313 36.852 70.004 37.2368C70.5844 37.6166 71.0679 38.104 71.4542 38.6989C71.8507 39.3094 72.1044 39.9571 72.2152 40.6418C72.3339 41.3215 72.3179 41.9996 72.1674 42.6761C72.0196 43.3396 71.7533 43.9577 71.3684 44.5304C70.9836 45.103 70.4898 45.5851 69.887 45.9765C69.2765 46.373 68.6314 46.6306 67.9517 46.7492C67.272 46.8679 66.599 46.8598 65.9327 46.7249C65.2692 46.5771 64.6511 46.3108 64.0784 45.9259C63.5057 45.5411 63.0212 45.0434 62.6247 44.4328ZM64.3859 43.2891C64.635 43.6726 64.9353 43.9895 65.287 44.2397C65.6414 44.4769 66.0238 44.6459 66.4342 44.7466C66.8473 44.8345 67.2601 44.8446 67.6725 44.7771C68.0928 44.7045 68.4947 44.5436 68.8783 44.2946C69.2462 44.0556 69.5409 43.7641 69.7625 43.4198C69.9919 43.0705 70.1427 42.6944 70.2149 42.2914C70.282 41.8806 70.2753 41.4676 70.1949 41.0524C70.1094 40.6294 69.9421 40.2262 69.693 39.8426C69.4388 39.4512 69.132 39.133 68.7725 38.8879C68.4209 38.6377 68.0424 38.4662 67.6371 38.3733C67.2345 38.2675 66.827 38.2483 66.4145 38.3159C66.0021 38.3834 65.608 38.5391 65.2323 38.7831C64.8566 39.0271 64.554 39.3238 64.3246 39.6731C64.0951 40.0224 63.943 40.405 63.8681 40.8209C63.7881 41.229 63.7908 41.6445 63.8764 42.0675C63.9619 42.4905 64.1317 42.8977 64.3859 43.2891ZM83.9162 37.2331L73.5216 35.5701L74.2094 35.524L77.6759 40.7848L75.9499 41.9057L70.1168 32.9235L70.1873 32.8778L80.4258 34.6087L79.9433 34.6883L76.4082 29.3219L78.1225 28.2087L83.9632 37.2026L83.9162 37.2331ZM85.9599 35.4051L80.3479 26.7634L82.931 25.0859C83.7999 24.5217 84.6235 24.1705 85.4018 24.0323C86.1801 23.8941 86.893 23.9208 87.5405 24.1124C88.1958 24.2989 88.7824 24.6024 89.3002 25.0229C89.8181 25.4433 90.2524 25.9236 90.6032 26.4637C91.02 27.1056 91.2787 27.761 91.3794 28.4302C91.4828 29.0864 91.4544 29.728 91.2941 30.3552C91.1287 30.9745 90.8473 31.5523 90.45 32.0886C90.0475 32.617 89.5528 33.0719 88.9657 33.4531L85.9599 35.4051ZM86.5949 32.6557L87.6047 31.9999C88.0352 31.7204 88.391 31.4114 88.6721 31.0731C88.948 30.7269 89.1401 30.3629 89.2483 29.9811C89.3643 29.5941 89.382 29.1931 89.3016 28.7779C89.2239 28.3498 89.0453 27.9205 88.7657 27.49C88.3997 26.9264 88.0084 26.5295 87.5918 26.2993C87.1779 26.0561 86.7705 25.9257 86.3694 25.9079C85.9762 25.885 85.6158 25.9299 85.2883 26.0424C84.9556 26.1471 84.6915 26.263 84.4958 26.3901L83.1103 27.2899L86.5949 32.6557Z" fill="white"/>
</svg>
