<svg width="116" height="158" viewBox="0 0 116 158" fill="none" xmlns="http://www.w3.org/2000/svg">
<rect x="-157.871" y="133.785" width="306.947" height="28.6949" transform="rotate(-33 -157.871 133.785)" fill="#F24949"/>
<path d="M23.892 27.3485L30.4576 31.9321L29.3417 32.373L27.7196 24.8628L29.7392 23.5513L31.6653 35.1541L21.849 28.6753L23.892 27.3485ZM31.2342 22.5804L32.9367 21.4748L38.5486 30.1165L36.8461 31.2221L31.2342 22.5804ZM37.7854 18.326C38.4977 17.8634 39.1792 17.5933 39.83 17.5157C40.4756 17.4303 41.0699 17.5229 41.6129 17.7935C42.1508 18.0563 42.6129 18.4851 42.9992 19.08C43.228 19.4322 43.4045 19.824 43.5287 20.2552C43.6557 20.6735 43.6958 21.1038 43.6491 21.5459C43.6101 21.9829 43.4535 22.4185 43.179 22.8527C42.9073 23.274 42.4896 23.6677 41.926 24.0337L40.7049 24.8267L42.4815 27.5624L40.779 28.668L35.1671 20.0264L37.7854 18.326ZM40.8392 22.3858C41.0975 22.218 41.2848 22.0352 41.4011 21.8372C41.5123 21.6315 41.5716 21.4316 41.5792 21.2375C41.5894 21.0305 41.5658 20.8399 41.5084 20.6658C41.4588 20.4866 41.3984 20.3422 41.3272 20.2326C41.2713 20.1465 41.1819 20.0432 41.0591 19.9226C40.9391 19.7891 40.7877 19.676 40.605 19.5832C40.4223 19.4904 40.2079 19.4515 39.9618 19.4667C39.7235 19.4768 39.4556 19.5784 39.1582 19.7715L37.9371 20.5645L39.6298 23.1711L40.8392 22.3858Z" fill="white"/>
</svg>
