<svg width="47" height="60" viewBox="0 0 47 60" fill="none" xmlns="http://www.w3.org/2000/svg">
<rect x="-61.0986" y="54.0562" width="121.302" height="11.3399" transform="rotate(-33 -61.0986 54.0562)" fill="url(#paint0_linear_1341_132803)"/>
<path d="M10.7154 10.5759L13.9983 12.8677L13.4403 13.0882L12.6293 9.33306L13.6391 8.67731L14.6021 14.4787L9.69394 11.2393L10.7154 10.5759ZM14.3866 8.19187L15.2378 7.63907L18.0438 11.9599L17.1925 12.5127L14.3866 8.19187ZM17.6622 6.06466C18.0183 5.83337 18.3591 5.69833 18.6844 5.65953C19.0073 5.61682 19.3044 5.66312 19.5759 5.79842C19.8449 5.9298 20.0759 6.14422 20.2691 6.44167C20.3834 6.61779 20.4717 6.81366 20.5338 7.02927C20.5973 7.23844 20.6174 7.45355 20.594 7.67461C20.5745 7.89313 20.4962 8.11093 20.359 8.32803C20.2231 8.53868 20.0143 8.7355 19.7325 8.9185L19.1219 9.315L20.0102 10.6829L19.159 11.2357L16.353 6.91485L17.6622 6.06466ZM19.1891 8.09454C19.3182 8.01067 19.4119 7.91925 19.47 7.82028C19.5256 7.7174 19.5553 7.61744 19.559 7.52041C19.5642 7.41692 19.5524 7.32164 19.5237 7.23457C19.4989 7.14495 19.4687 7.07275 19.4331 7.01796C19.4051 6.97491 19.3604 6.92324 19.299 6.86296C19.239 6.79622 19.1633 6.73965 19.072 6.69325C18.9806 6.64684 18.8734 6.62743 18.7504 6.63501C18.6312 6.64004 18.4973 6.69085 18.3486 6.78744L17.738 7.18393L18.5844 8.48723L19.1891 8.09454Z" fill="white"/>
<defs>
<linearGradient id="paint0_linear_1341_132803" x1="-61.0986" y1="59.7261" x2="60.2035" y2="59.7261" gradientUnits="userSpaceOnUse">
<stop stop-color="#00C6FB"/>
<stop offset="1" stop-color="#005BEA"/>
</linearGradient>
</defs>
</svg>
