<svg width="118" height="161" viewBox="0 0 118 161" fill="none" xmlns="http://www.w3.org/2000/svg">
<rect x="-155.371" y="136.785" width="306.947" height="28.6949" transform="rotate(-33 -155.371 136.785)" fill="url(#paint0_linear_1014_182679)"/>
<path d="M26.8424 28.9229L33.4081 33.5065L32.2922 33.9474L30.6701 26.4372L32.6896 25.1257L34.6157 36.7286L24.7994 30.2497L26.8424 28.9229ZM34.1847 24.1548L35.8872 23.0492L41.4991 31.6909L39.7966 32.7965L34.1847 24.1548ZM40.7359 19.9004C41.4482 19.4378 42.1297 19.1678 42.7804 19.0902C43.4261 19.0047 44.0204 19.0973 44.5634 19.3679C45.1012 19.6307 45.5634 20.0595 45.9497 20.6544C46.1784 21.0067 46.3549 21.3984 46.4792 21.8296C46.6062 22.248 46.6463 22.6782 46.5995 23.1203C46.5606 23.5573 46.4039 23.993 46.1295 24.4272C45.8578 24.8484 45.4401 25.2421 44.8765 25.6081L43.6554 26.4011L45.432 29.1368L43.7295 30.2424L38.1176 21.6008L40.7359 19.9004ZM43.7897 23.9602C44.048 23.7924 44.2353 23.6096 44.3516 23.4117C44.4628 23.2059 44.5221 23.006 44.5296 22.8119C44.5399 22.6049 44.5163 22.4144 44.4589 22.2402C44.4092 22.061 44.3489 21.9166 44.2777 21.807C44.2218 21.7209 44.1324 21.6176 44.0096 21.497C43.8895 21.3635 43.7382 21.2504 43.5555 21.1576C43.3728 21.0648 43.1584 21.0259 42.9123 21.0411C42.674 21.0512 42.4061 21.1528 42.1087 21.346L40.8876 22.139L42.5803 24.7455L43.7897 23.9602Z" fill="white"/>
<defs>
<linearGradient id="paint0_linear_1014_182679" x1="-155.371" y1="151.133" x2="151.576" y2="151.133" gradientUnits="userSpaceOnUse">
<stop stop-color="#00C6FB"/>
<stop offset="1" stop-color="#005BEA"/>
</linearGradient>
</defs>
</svg>
