<svg width="32" height="31" viewBox="0 0 32 31" fill="none" xmlns="http://www.w3.org/2000/svg">
<path id="Soft Star" d="M15.5864 0.367445C15.6445 -0.122482 16.3555 -0.122482 16.4136 0.367445L16.9013 4.47749C17.531 9.78467 21.7153 13.969 27.0225 14.5987L31.1325 15.0864C31.6225 15.1445 31.6225 15.8555 31.1325 15.9136L27.0225 16.4013C21.7153 17.031 17.531 21.2153 16.9013 26.5225L16.4136 30.6325C16.3555 31.1225 15.6445 31.1225 15.5864 30.6325L15.0987 26.5225C14.469 21.2153 10.2847 17.031 4.97749 16.4013L0.867445 15.9136C0.377518 15.8555 0.377518 15.1445 0.867445 15.0864L4.97749 14.5987C10.2847 13.969 14.469 9.78467 15.0987 4.47749L15.5864 0.367445Z" fill="url(#paint0_linear_1025_99974)"/>
<defs>
<linearGradient id="paint0_linear_1025_99974" x1="0.5" y1="15.5" x2="31.5" y2="15.5" gradientUnits="userSpaceOnUse">
<stop stop-color="#00C6FB"/>
<stop offset="1" stop-color="#005BEA"/>
</linearGradient>
</defs>
</svg>
